<svg width="154" height="154" viewBox="0 0 154 154" fill="none" xmlns="http://www.w3.org/2000/svg">
<path d="M88.9076 92.5617C88.9055 92.5089 88.8926 92.457 88.8696 92.4094C88.8467 92.3617 88.8143 92.3192 88.7743 92.2846C88.7704 92.1249 88.7281 91.9685 88.651 91.8286C88.5739 91.6887 88.4643 91.5694 88.3314 91.4808C88.1985 91.3922 88.0462 91.3368 87.8874 91.3195C87.7286 91.3021 87.568 91.3232 87.4191 91.381C86.8065 90.6153 85.5255 91.7685 85.9642 92.2333C85.9543 92.2432 85.9543 92.2539 85.9436 92.2639C85.6373 93.0441 86.4673 93.8673 87.1863 93.999C87.3976 94.0446 87.6166 94.0415 87.8265 93.9897C88.0365 93.938 88.2318 93.8391 88.3978 93.7006C88.5638 93.562 88.6959 93.3874 88.7843 93.1901C88.8726 92.9927 88.9148 92.7778 88.9076 92.5617Z" fill="#191919"/>
<path d="M66.5461 100.344C66.4633 100.207 66.3399 100.099 66.1929 100.034C66.0459 99.9696 65.8825 99.9523 65.7253 99.9845C65.6493 100.006 65.5801 100.046 65.5243 100.102C65.4685 100.158 65.428 100.227 65.4068 100.303C65.1571 101.041 65.9006 101.834 66.4129 101.504C66.7544 101.349 66.7238 100.625 66.5461 100.344Z" fill="#191919"/>
<path d="M70.9407 98.8451C70.8589 98.7066 70.7356 98.5974 70.5883 98.5329C70.4409 98.4685 70.277 98.4521 70.1199 98.486C70.0439 98.5073 69.9747 98.5477 69.9189 98.6035C69.8631 98.6593 69.8226 98.7285 69.8013 98.8045C69.5517 99.5419 70.2944 100.331 70.8075 100.005C71.1474 99.8512 71.1199 99.1345 70.9407 98.8451Z" fill="#191919"/>
<path d="M71.2592 103.342C70.7242 102.22 70.0848 101.151 69.3496 100.149C69.1632 99.8168 68.8988 99.5348 68.5793 99.3274C68.5465 99.3099 68.5093 99.3022 68.4722 99.3054C68.4352 99.3085 68.3998 99.3224 68.3705 99.3453C68.3411 99.3681 68.319 99.399 68.3069 99.4342C68.2948 99.4693 68.2931 99.5073 68.3021 99.5434C68.3511 99.8611 68.4468 99.9063 69.247 101.197C69.8712 102.214 70.4236 103.274 70.9001 104.369V104.399C70.407 104.389 69.0724 104.39 68.9284 104.42C68.58 104.497 68.6512 104.956 68.9284 105.056C69.3503 105.167 69.7878 105.205 70.2225 105.17C70.607 105.218 70.9972 105.19 71.371 105.088C72.1084 104.76 71.4752 103.794 71.2592 103.342Z" fill="#191919"/>
<path d="M69.0723 106.823C69.0858 107.18 69.225 107.521 69.4654 107.786C69.7058 108.051 70.0319 108.222 70.3862 108.27C70.7606 108.268 71.1217 108.131 71.403 107.884C71.6843 107.637 71.8671 107.296 71.9176 106.926C71.9812 106.659 72.0531 106.231 71.7124 106.115C71.3962 106.006 71.2323 106.321 71.158 106.566C71.0485 106.926 70.9421 107.469 70.4597 107.469C69.9467 107.469 69.7859 106.933 69.4536 106.658C69.4209 106.63 69.3807 106.611 69.3378 106.604C69.2948 106.597 69.2507 106.603 69.2108 106.62C69.1708 106.637 69.1366 106.665 69.1121 106.701C69.0876 106.737 69.0737 106.779 69.0723 106.823Z" fill="#191919"/>
<path d="M58.446 114.255C57.619 114.38 56.8094 114.6 56.0332 114.912C50.4574 116.865 44.6488 119.133 39.6779 122.684C38.9208 123.209 38.1974 123.782 37.5117 124.398C36.8054 124.966 36.2895 125.736 36.0332 126.606C35.9719 126.883 36.3394 127.171 36.5569 126.912C37.0289 126.301 37.5327 125.715 38.0661 125.157C39.9473 123.54 41.995 122.129 44.1748 120.945C47.9595 118.942 51.8973 117.243 55.9513 115.864C56.8601 115.591 57.7348 115.215 58.5585 114.744C58.7951 114.615 58.7331 114.225 58.446 114.255Z" fill="#191919"/>
<path d="M72.9427 114.841C80.089 118.243 86.9221 118.517 92.6978 125.591C94.5179 127.819 94.9015 129.15 95.7882 130.252C96.0263 130.548 96.4245 130.221 96.3632 129.913C96.1403 129.077 95.7756 128.285 95.2851 127.573C93.9364 125.374 92.2332 123.414 90.2445 121.772C86.7904 118.933 84.0668 118.125 80.2957 116.74C74.7184 114.694 74.5415 114.668 73.1701 114.348C72.8608 114.276 72.6564 114.705 72.9427 114.841Z" fill="#191919"/>
<path d="M108.282 95.4569C108.097 95.7632 107.921 96.3918 108.231 96.6889C108.286 96.7391 108.351 96.7777 108.422 96.8023C108.492 96.8269 108.567 96.8372 108.642 96.8324C108.716 96.8276 108.789 96.8079 108.856 96.7745C108.923 96.741 108.982 96.6945 109.031 96.6376C109.189 96.4344 109.279 96.1866 109.288 95.9294C109.376 95.0833 108.6 94.9347 108.282 95.4569Z" fill="#191919"/>
<path d="M113.046 95.8267C112.982 95.79 112.91 95.7667 112.837 95.7582C112.763 95.7498 112.689 95.7563 112.618 95.7774C112.547 95.7985 112.481 95.8338 112.424 95.8811C112.367 95.9284 112.32 95.9867 112.286 96.0526C112.102 96.3589 111.925 96.9875 112.235 97.2846C112.291 97.3346 112.356 97.373 112.426 97.3976C112.497 97.4221 112.572 97.4323 112.646 97.4275C112.721 97.4227 112.794 97.4031 112.861 97.3697C112.928 97.3364 112.987 97.29 113.036 97.2333C113.194 97.0302 113.284 96.7823 113.292 96.5251C113.324 96.3973 113.317 96.2632 113.273 96.1392C113.229 96.0152 113.15 95.9066 113.046 95.8267Z" fill="#191919"/>
<path d="M109.052 99.783C109.538 99.4564 109.945 99.025 110.243 98.5204C110.657 97.8067 110.909 97.0111 110.982 96.1896C111.001 95.9537 110.664 95.8925 110.551 96.077C110.015 96.9469 109.77 98.1306 108.816 98.9208C108.608 99.0931 108.25 99.208 108.097 99.4446C107.766 99.9561 108.518 100.491 108.867 100.769C109.319 101.128 109.965 101.631 110.572 101.487C110.615 101.475 110.654 101.453 110.688 101.423C110.721 101.393 110.747 101.356 110.764 101.314C110.781 101.273 110.788 101.228 110.785 101.183C110.782 101.139 110.768 101.095 110.746 101.056C110.437 100.549 109.716 100.472 109.052 99.783Z" fill="#191919"/>
<path d="M112.022 102.172C111.071 102.615 109.992 102.702 108.983 102.418C108.685 102.295 108.37 102.222 108.049 102.203C108.012 102.204 107.976 102.215 107.945 102.234C107.914 102.253 107.888 102.28 107.869 102.311C107.851 102.343 107.841 102.379 107.84 102.415C107.839 102.452 107.847 102.488 107.864 102.521C108.223 103.158 109.319 103.313 109.979 103.363C110.533 103.4 111.089 103.337 111.621 103.178C110.802 105.637 109.114 105.858 108.849 105.088C108.663 104.544 108.734 103.959 108.562 103.414C108.542 103.349 108.501 103.293 108.446 103.252C108.391 103.212 108.324 103.191 108.256 103.191C108.188 103.191 108.121 103.212 108.066 103.252C108.011 103.293 107.971 103.349 107.95 103.414C107.76 104.157 107.836 104.943 108.166 105.635C108.355 105.927 108.638 106.146 108.968 106.256C109.298 106.366 109.656 106.36 109.983 106.24C111.353 105.941 112.335 104.02 112.601 102.637C112.626 102.56 112.628 102.478 112.605 102.4C112.582 102.322 112.536 102.254 112.473 102.203C112.41 102.153 112.333 102.122 112.252 102.117C112.172 102.111 112.091 102.131 112.022 102.172Z" fill="#191919"/>
<path d="M116.578 115.48C116.255 115.395 115.913 115.428 115.612 115.572C113.828 116.07 111.921 115.864 110.284 114.997C109.617 114.657 109.051 114.161 108.405 113.796C108.373 113.777 108.337 113.766 108.3 113.764C108.263 113.762 108.226 113.769 108.192 113.784C108.158 113.799 108.128 113.821 108.104 113.85C108.081 113.879 108.064 113.913 108.056 113.949C107.708 113.85 107.682 113.958 106.044 114.093C103.039 114.34 96.5492 113.513 92.5729 117.491C91.5798 118.373 90.9201 119.569 90.7046 120.88C90.706 120.962 90.7341 121.042 90.7847 121.108C90.8354 121.173 90.9059 121.22 90.9856 121.242C91.0654 121.264 91.1501 121.26 91.2271 121.23C91.3041 121.199 91.3693 121.145 91.4129 121.075C91.849 120.077 92.4304 119.15 93.138 118.323C96.8409 114.424 102.907 115.353 106.115 114.976C106.741 114.899 107.738 114.863 108.182 114.35C108.192 114.34 108.192 114.34 108.192 114.329C109.307 116.1 112.31 116.969 114.568 116.711C115.195 116.64 116.462 116.565 116.755 115.88C116.773 115.842 116.783 115.801 116.783 115.759C116.784 115.718 116.775 115.677 116.758 115.639C116.742 115.601 116.717 115.567 116.685 115.539C116.654 115.512 116.617 115.492 116.578 115.48Z" fill="#191919"/>
<path d="M97.3681 88.044C96.9676 87.4996 95.7027 86.9445 95.2839 87.7775C95.2687 87.8024 95.2596 87.8305 95.2573 87.8596C95.255 87.8886 95.2595 87.9178 95.2705 87.9448C95.2816 87.9717 95.2988 87.9957 95.3208 88.0148C95.3428 88.0339 95.3689 88.0476 95.3972 88.0547C95.6437 88.0938 95.8895 88.0249 96.1261 88.0746C96.269 88.1086 96.4019 88.1756 96.5142 88.2701C96.6266 88.3646 96.7152 88.4841 96.7731 88.6191C97.4699 90.054 96.2211 91.9682 95.0886 91.5762C94.8436 91.4912 94.6989 91.2699 94.4829 91.1451C94.1659 90.9644 93.7938 91.309 94.0518 91.874C93.9864 91.9032 93.9298 91.9491 93.888 92.0073C93.249 93.1218 92.3728 94.0822 91.3214 94.8205C88.6353 96.4637 85.7317 95.2653 85.2226 92.8182C84.8397 90.9636 85.2111 87.7929 85.5403 85.9498C85.6858 85.1389 85.917 84.3066 85.9821 83.4858C85.9821 83.4326 85.9646 83.3808 85.9323 83.3385C85.9 83.2962 85.8546 83.2657 85.8033 83.2517C85.7519 83.2377 85.6974 83.241 85.6481 83.261C85.5988 83.281 85.5574 83.3167 85.5304 83.3625C84.535 85.3641 83.9507 91.1336 84.4936 93.26C84.8162 94.392 85.5743 95.3501 86.602 95.9242C87.6296 96.4982 88.8429 96.6416 89.976 96.3228C89.9477 96.6367 90.025 96.8664 89.9553 98.0471C89.8696 99.5073 89.6491 99.6918 89.8941 100.049C89.9128 100.081 89.9376 100.109 89.9672 100.13C89.9967 100.152 90.0303 100.168 90.066 100.177C90.1016 100.185 90.1387 100.187 90.1749 100.181C90.2112 100.175 90.2459 100.162 90.2769 100.142C90.6024 99.9223 90.6138 99.5869 90.6667 99.2072C90.7711 98.4717 90.7919 97.7268 90.7287 96.9866C90.72 96.6981 90.6752 96.4118 90.5955 96.1344C90.8106 96.0525 91.0289 95.9751 91.2417 95.8779C92.7463 95.1491 93.9173 93.8754 94.5174 92.3151C96.7938 93.4009 98.7418 89.9116 97.3681 88.044Z" fill="#191919"/>
<path d="M96.0954 92.8803C95.7142 93.844 95.5497 94.8797 95.6135 95.9141C95.6773 96.9485 95.9678 97.9562 96.4645 98.8658C96.6705 99.2042 97.2938 98.9799 97.1322 98.5786C96.1919 96.2379 96.231 95.4469 96.5059 92.9929C96.5066 92.9441 96.4911 92.8966 96.4619 92.8576C96.4326 92.8186 96.3912 92.7905 96.3442 92.7776C96.2973 92.7647 96.2473 92.7678 96.2023 92.7864C96.1572 92.805 96.1197 92.838 96.0954 92.8803Z" fill="#191919"/>
<path d="M104.842 79.5434C105.116 79.0746 105.288 78.5533 105.346 78.0137C105.405 77.474 105.348 76.9281 105.181 76.4117C105.025 76.0295 104.762 75.7008 104.423 75.4656C104.084 75.2304 103.684 75.0989 103.271 75.087C103.538 73.8244 103.456 72.3159 102.553 71.381C102.272 71.0963 101.911 70.9052 101.518 70.8335C101.124 70.7618 100.718 70.8132 100.355 70.9805C100.273 70.5052 100.068 70.0598 99.76 69.6887C99.4519 69.3175 99.0518 69.0338 98.5997 68.8657C98.1694 68.7295 97.7081 68.7262 97.2759 68.8562C96.8437 68.9863 96.4607 69.2436 96.177 69.5946C95.3518 68.9155 94.3449 68.4942 93.2819 68.3833C92.9436 68.3111 92.591 68.35 92.2765 68.4941C91.962 68.6383 91.7023 68.88 91.5361 69.1834C91.0719 68.8836 90.5342 68.7174 89.9818 68.7029C89.4294 68.6885 88.8837 68.8264 88.4044 69.1015C87.9716 69.3802 87.6325 69.7826 87.4312 70.2563C87.2298 70.7301 87.1754 71.2534 87.275 71.7585C86.7576 71.7327 86.2417 71.8343 85.7727 72.0545C85.3036 72.2746 84.8959 72.6066 84.5851 73.0211C84.2957 73.4469 84.1317 73.9454 84.1118 74.4598C84.0919 74.9743 84.2169 75.4839 84.4726 75.9308C84.0417 76.0534 83.6615 76.3111 83.3879 76.6658C83.1143 77.0206 82.9617 77.4538 82.9526 77.9017C82.9705 78.1826 83.0507 78.4559 83.1875 78.7018C83.3243 78.9477 83.5143 79.16 83.7435 79.3233C83.9727 79.4866 84.2354 79.5967 84.5125 79.6456C84.7896 79.6945 85.0742 79.6811 85.3454 79.6062C85.3993 79.5911 85.4497 79.5655 85.4938 79.531C85.5378 79.4964 85.5746 79.4535 85.602 79.4047C85.6295 79.356 85.647 79.3022 85.6537 79.2467C85.6604 79.1911 85.6561 79.1348 85.641 79.0809C85.6259 79.027 85.6004 78.9766 85.5658 78.9326C85.5313 78.8885 85.4884 78.8518 85.4396 78.8243C85.3908 78.7969 85.3371 78.7793 85.2815 78.7726C85.226 78.7659 85.1696 78.7702 85.1157 78.7853C84.9663 78.8172 84.8118 78.8159 84.6629 78.7816C84.514 78.7473 84.3745 78.6809 84.254 78.5869C84.1336 78.4929 84.0352 78.3736 83.9658 78.2375C83.8964 78.1014 83.8577 77.9518 83.8523 77.7991C83.9147 77.4723 84.094 77.1794 84.3567 76.9754C84.6194 76.7713 84.9475 76.6699 85.2796 76.6904C85.3672 76.6894 85.4525 76.6628 85.5251 76.6139C85.5978 76.565 85.6545 76.496 85.6884 76.4152C85.7222 76.3345 85.7317 76.2456 85.7157 76.1595C85.6997 76.0734 85.6588 75.9939 85.5981 75.9308C85.2633 75.6214 85.0525 75.2006 85.0053 74.7471C84.9581 74.2937 85.0777 73.8385 85.3416 73.4668C85.6428 73.1079 86.0434 72.8461 86.4931 72.7145C86.9427 72.5829 87.4213 72.5873 87.8684 72.7271C88.2069 72.8213 88.5905 72.407 88.3615 72.0809C88.24 71.8959 88.1579 71.6878 88.1205 71.4696C88.0831 71.2514 88.0911 71.0279 88.1441 70.813C88.1971 70.5981 88.2939 70.3964 88.4284 70.2206C88.5629 70.0448 88.7323 69.8987 88.9259 69.7914C89.3795 69.5794 89.8902 69.5218 90.3797 69.6274C90.8692 69.7331 91.3106 69.9961 91.6364 70.3764C91.955 70.7248 92.5737 70.2784 92.3041 69.8626C92.0928 69.538 92.5093 69.2906 92.7965 69.2501C93.3943 69.2477 93.9866 69.3646 94.5388 69.5937C95.0909 69.8229 95.5919 70.1598 96.0124 70.5847C96.0656 70.6351 96.1307 70.6711 96.2016 70.6894C96.2725 70.7077 96.3469 70.7076 96.4178 70.6891C96.4887 70.6706 96.5537 70.6344 96.6067 70.5839C96.6597 70.5333 96.6989 70.4701 96.7207 70.4001C96.7899 70.2392 96.8908 70.0938 97.0173 69.9726C97.1438 69.8514 97.2934 69.7568 97.4572 69.6945C97.621 69.6323 97.7956 69.6035 97.9707 69.61C98.1458 69.6166 98.3178 69.6582 98.4764 69.7325C98.8591 69.9546 99.17 70.2819 99.3721 70.6755C99.5742 71.0692 99.6591 71.5125 99.6166 71.953C99.62 72.0534 99.6588 72.1493 99.7262 72.2238C99.7935 72.2984 99.885 72.3467 99.9846 72.3603C100.084 72.3738 100.185 72.3518 100.27 72.298C100.355 72.2442 100.418 72.1621 100.448 72.0663C100.527 71.9179 100.651 71.7989 100.803 71.7267C100.955 71.6546 101.126 71.6332 101.29 71.6658C101.499 71.708 101.693 71.8014 101.857 71.9376C102.02 72.0738 102.147 72.2486 102.225 72.4461C102.633 73.438 102.64 74.5493 102.245 75.5464C102.104 75.9484 102.565 76.1751 102.882 76.0395C103.664 75.7057 104.37 76.4706 104.483 77.1789C104.522 78.0722 104.29 78.9563 103.816 79.7149C103.775 79.7898 103.757 79.8751 103.764 79.9603C103.771 80.0454 103.802 80.1267 103.854 80.1943C103.907 80.2619 103.977 80.3128 104.058 80.3408C104.139 80.3688 104.226 80.3727 104.309 80.3519C104.741 80.27 105.05 80.721 105.09 81.0908C105.098 81.5875 104.962 82.0759 104.699 82.4974C104.553 82.874 104.316 83.2087 104.009 83.4724C103.703 83.736 103.337 83.9205 102.943 84.0097C102.625 84.051 102.56 84.502 102.758 84.6988C102.957 84.8956 102.846 85.6437 102.84 85.9102C102.845 86.3666 102.74 86.8176 102.534 87.2249C102.389 87.5382 102.135 87.7883 101.82 87.9291C101.505 88.0699 101.15 88.0917 100.819 87.9906C100.742 87.9482 100.653 87.9321 100.565 87.9446C100.478 87.9572 100.397 87.9977 100.335 88.0601C100.272 88.1225 100.231 88.2034 100.219 88.2908C100.206 88.3782 100.222 88.4674 100.264 88.5449C100.366 88.775 100.409 89.0271 100.387 89.2779C100.366 89.5286 100.282 89.77 100.143 89.9798C100.004 90.1895 99.8143 90.3608 99.5915 90.4779C99.3688 90.595 99.1201 90.6542 98.8685 90.6498C98.7728 90.6533 98.6815 90.6906 98.6108 90.755C98.54 90.8195 98.4944 90.907 98.4821 91.0019C98.4698 91.0968 98.4916 91.193 98.5435 91.2734C98.5955 91.3537 98.6743 91.4131 98.7659 91.4408C98.8735 91.4986 98.9661 91.5809 99.036 91.6811C99.1059 91.7813 99.1511 91.8965 99.1681 92.0175C99.1852 92.1385 99.1734 92.2618 99.1338 92.3774C99.0943 92.493 99.028 92.5976 98.9405 92.6828C98.4382 93.1667 97.5499 92.862 97.0921 92.4776C96.8746 92.2946 96.4879 92.5281 96.661 92.7953C96.8128 93.0327 97.0153 93.2335 97.254 93.3833C97.4926 93.533 97.7615 93.628 98.0413 93.6614C98.3211 93.6948 98.6048 93.6657 98.872 93.5764C99.1392 93.487 99.3833 93.3395 99.5867 93.1445C99.8051 92.8883 99.9367 92.5694 99.9625 92.2338C99.9884 91.8981 99.9072 91.5628 99.7307 91.2762C100.204 91.0919 100.602 90.7562 100.864 90.3215C101.126 89.8868 101.237 89.3776 101.179 88.8734C101.582 88.8757 101.979 88.7727 102.33 88.5747C102.681 88.3766 102.974 88.0903 103.181 87.744C103.493 87.1779 103.659 86.5428 103.663 85.8964C103.708 85.4862 103.698 85.0717 103.632 84.6644C104.141 84.4098 104.592 84.0534 104.958 83.6171C105.324 83.1809 105.596 82.6741 105.757 82.1284C106.251 80.8106 105.671 79.819 104.842 79.5434Z" fill="#191919"/>
<path d="M87.4607 85.6314C87.4274 85.5762 87.3814 85.5298 87.3266 85.4959C87.2717 85.4621 87.2096 85.4418 87.1454 85.4368C87.0811 85.4318 87.0166 85.4421 86.9572 85.4671C86.8978 85.492 86.8451 85.5307 86.8037 85.5801C86.6753 85.7074 86.5852 85.8681 86.5434 86.044C86.5016 86.2199 86.5098 86.404 86.5671 86.5755C86.5824 86.6325 86.6108 86.6852 86.6499 86.7295C86.689 86.7738 86.7379 86.8084 86.7926 86.8306C86.8473 86.8529 86.9065 86.8621 86.9654 86.8577C87.0243 86.8533 87.0814 86.8353 87.1322 86.8052C87.3217 86.6842 87.46 86.4975 87.5206 86.281C87.5812 86.0645 87.5598 85.8332 87.4607 85.6314Z" fill="#191919"/>
<path d="M90.2838 86.0006C90.2506 85.9453 90.2047 85.8987 90.1498 85.8647C90.095 85.8308 90.0328 85.8104 89.9685 85.8054C89.9042 85.8004 89.8396 85.8108 89.7802 85.8359C89.7208 85.8609 89.6682 85.8998 89.6268 85.9493C89.4983 86.0765 89.4081 86.2372 89.3664 86.4132C89.3247 86.5892 89.3332 86.7733 89.391 86.9447C89.4064 87.0016 89.4347 87.0542 89.4738 87.0984C89.5128 87.1426 89.5616 87.1771 89.6162 87.1994C89.6708 87.2216 89.7299 87.2309 89.7887 87.2266C89.8475 87.2222 89.9045 87.2044 89.9553 87.1744C90.144 87.0527 90.2817 86.8661 90.3422 86.6498C90.4027 86.4335 90.3819 86.2026 90.2838 86.0006Z" fill="#191919"/>
<path d="M88.1076 86.2884C87.7142 86.7548 87.3924 87.2771 87.1527 87.8382C86.8609 88.4019 86.6368 88.9982 86.485 89.6146C86.2316 90.9599 87.9644 90.7149 88.7339 90.3948C89.0524 90.2624 88.8671 89.7892 88.5693 89.7892C88.0846 89.7892 87.5172 89.9714 87.3373 89.8811C87.2347 89.953 87.2148 89.9125 87.2653 89.7785C87.2967 89.6965 87.3174 89.5939 87.3472 89.512C88.0501 87.5732 88.237 87.3588 88.4667 86.5036C88.5218 86.2999 88.2523 86.1261 88.1076 86.2884Z" fill="#191919"/>
<path d="M96.3521 81.9767C95.3099 79.1988 92.447 78.0908 89.6063 78.5678C88.1211 78.7458 86.743 79.4312 85.705 80.5081C85.633 80.4875 85.6415 80.5893 85.705 80.5081L85.6951 80.5388C85.6637 80.5288 85.6537 80.5388 85.633 80.5701C85.4171 80.9599 85.1698 81.5058 85.4998 81.9048C85.8574 82.3374 86.5274 82.1643 86.9883 82.0487C88.4003 81.6927 89.7847 80.8236 91.7625 81.381C93.7211 81.9362 94.7487 83.5671 95.2632 85.5288C95.4087 86.084 95.4309 86.8366 96.0236 87.038C96.0809 87.0555 96.1412 87.0611 96.2008 87.0544C96.2603 87.0477 96.3178 87.0288 96.3698 86.9989C96.4218 86.9691 96.4671 86.9289 96.5029 86.8808C96.5387 86.8327 96.5642 86.7778 96.5779 86.7195C96.8568 85.1415 96.7797 83.5211 96.3521 81.9767Z" fill="#38A1FF"/>
<path d="M88.9186 100.406C89.1919 101.153 90.1621 101.542 90.8696 101.751C91.7342 101.977 92.6244 102.091 93.5182 102.089C94.5092 102.158 95.5039 102.028 96.4439 101.706C97.1223 101.441 98.1108 100.916 98.2104 100.115C98.2235 100.056 98.2193 99.9943 98.1984 99.9373C98.1775 99.8803 98.1407 99.8305 98.0923 99.7938C98.044 99.757 97.9862 99.7349 97.9257 99.73C97.8652 99.7251 97.8045 99.7377 97.7509 99.7662C97.0205 100.2 96.7555 101.341 93.4286 101.214C90.2241 101.091 89.937 100.335 89.1575 100.142C89.1219 100.132 89.0842 100.132 89.0486 100.142C89.0131 100.152 88.9811 100.172 88.9562 100.2C88.9314 100.227 88.9147 100.261 88.908 100.297C88.9014 100.334 88.905 100.371 88.9186 100.406Z" fill="#191919"/>
<path d="M88.5916 100.457C85.9508 100.762 83.3471 101.33 80.8189 102.151C79.0672 102.674 77.4303 103.524 75.995 104.656C75.7968 104.831 75.627 105.035 75.492 105.262C75.345 105.51 75.2771 105.796 75.2975 106.083C75.2994 106.138 75.317 106.191 75.3482 106.237C75.3794 106.282 75.4228 106.318 75.4734 106.339C75.524 106.361 75.5798 106.367 75.634 106.358C75.6883 106.349 75.7389 106.325 75.7799 106.288C76.1107 105.932 76.446 105.518 76.8067 105.2C78.2238 104.163 79.8116 103.381 81.4981 102.89C83.8496 102.141 86.3343 101.761 88.6444 100.909C88.8672 100.806 88.8573 100.438 88.5916 100.457Z" fill="#191919"/>
<path d="M98.6622 100.436C99.5671 100.94 100.543 101.303 101.557 101.514C101.989 101.655 102.429 101.774 102.851 101.946C103.23 102.185 103.646 102.358 104.083 102.459C104.125 102.459 104.166 102.449 104.204 102.43C104.242 102.411 104.274 102.383 104.299 102.349C104.324 102.315 104.341 102.276 104.348 102.234C104.355 102.193 104.352 102.15 104.34 102.11C104.148 101.271 102.732 100.957 102.03 100.755C100.039 100.18 99.4669 99.9483 98.7854 99.9744C98.7319 99.9761 98.6803 99.9951 98.6383 100.028C98.5963 100.062 98.5662 100.108 98.5524 100.159C98.5386 100.211 98.5418 100.266 98.5615 100.316C98.5813 100.366 98.6166 100.408 98.6622 100.436Z" fill="#191919"/>
<path d="M50.3962 81.5457C49.4726 80.8054 48.7549 79.8401 48.312 78.7425C48.2306 78.3863 48.1244 78.0363 47.9942 77.695C47.9741 77.6646 47.946 77.6403 47.9129 77.625C47.8798 77.6096 47.8431 77.6038 47.8069 77.6081C47.7707 77.6123 47.7364 77.6266 47.7078 77.6493C47.6792 77.6719 47.6575 77.7021 47.6451 77.7363C47.5292 78.3883 47.634 79.0603 47.9429 79.646C48.1951 80.2326 48.542 80.7738 48.9697 81.2478C49.4869 81.7973 50.0655 82.2854 50.6941 82.7027C50.7768 82.754 50.7768 82.7946 50.6635 82.8459C50.5815 82.999 50.2959 83.1667 50.1604 83.2777C49.8771 83.5074 49.4797 83.6981 49.4108 84.0886C49.395 84.1523 49.4044 84.2196 49.4369 84.2766C49.4694 84.3336 49.5225 84.376 49.5854 84.3949C49.9759 84.4569 50.2224 84.2211 50.5302 83.9845C50.9098 83.7597 51.2357 83.4548 51.4851 83.0909C51.8381 82.3374 50.8572 81.9171 50.3962 81.5457Z" fill="#191919"/>
<path d="M47.7681 86.8841C47.7153 86.9859 47.6234 87.2003 47.5116 87.2432C47.3355 87.3113 47.1724 87.09 47.0905 86.9767C46.8608 86.6275 46.8715 86.1712 46.6387 85.8366C46.5621 85.7225 46.3386 85.6834 46.2689 85.8366C46.1522 86.2039 46.1703 86.6009 46.3202 86.956C46.4073 87.3228 46.622 87.6465 46.9259 87.8695C47.0749 87.9683 47.2474 88.026 47.426 88.0369C47.6045 88.0478 47.7827 88.0115 47.9427 87.9315C48.0887 87.8394 48.2099 87.713 48.2957 87.5632C48.3816 87.4135 48.4294 87.2449 48.435 87.0724C48.4818 86.7087 47.9282 86.5739 47.7681 86.8841Z" fill="#191919"/>
<path d="M45.3959 79.1634C45.2778 79.1936 45.1723 79.2607 45.0948 79.3549C45.0173 79.449 44.9718 79.5654 44.9648 79.6872C45.0294 79.9926 45.1667 80.2779 45.3653 80.5187C45.6716 80.8128 46.1662 80.6964 46.1662 80.0049C46.1662 79.5945 45.8898 79.0532 45.3959 79.1634Z" fill="#191919"/>
<path d="M38.8047 84.636C38.7741 84.5854 38.7251 84.5487 38.6681 84.5333C38.6111 84.5179 38.5503 84.525 38.4984 84.5533C38.137 84.7554 38.0681 85.1498 37.8208 85.4468C37.5509 85.7778 37.1657 85.9942 36.7427 86.0525C36.2698 86.0388 35.8086 85.9029 35.4038 85.6582C34.999 85.4135 34.6644 85.0682 34.4325 84.6559C33.3881 82.8442 35.1354 80.1873 36.4861 81.2477C36.5401 81.3027 36.6124 81.3358 36.6892 81.341C36.766 81.3461 36.842 81.3228 36.9028 81.2756C36.9636 81.2283 37.0049 81.1604 37.0188 81.0846C37.0328 81.0089 37.0184 80.9307 36.9785 80.8649C36.8308 80.6311 36.6181 80.4454 36.3665 80.3307C36.1149 80.2159 35.8353 80.177 35.5619 80.2187C34.078 80.3779 32.6462 82.7455 33.5497 84.7975C33.8269 85.4028 34.266 85.9197 34.8186 86.2912C35.3711 86.6626 36.0155 86.8742 36.6806 86.9024C37.285 86.8678 37.8557 86.6128 38.2848 86.1858C38.663 85.8083 39.1669 85.1582 38.8047 84.636Z" fill="#191919"/>
<path d="M37.1003 87.1405C37.6763 88.8899 37.8337 90.7502 37.5597 92.5716C37.3874 93.4629 37.1187 93.4904 37.1279 94.0096C37.1286 94.0505 37.1386 94.0908 37.1572 94.1273C37.1758 94.1638 37.2024 94.1956 37.2351 94.2203C37.2678 94.245 37.3056 94.262 37.3458 94.2699C37.386 94.2778 37.4275 94.2765 37.4671 94.2661C38.0735 94.1895 38.2573 93.4544 38.3706 92.9414C38.8227 90.9079 38.5275 88.7797 37.539 86.946C37.5062 86.9001 37.4586 86.867 37.4042 86.8521C37.3498 86.8373 37.292 86.8417 37.2405 86.8645C37.1889 86.8874 37.1468 86.9273 37.1213 86.9776C37.0958 87.0278 37.0883 87.0854 37.1003 87.1405Z" fill="#191919"/>
<path d="M35.591 73.2286C35.7511 73.0022 35.8173 72.7226 35.7756 72.4484C35.7572 72.3852 35.7149 72.3317 35.6577 72.2991C35.6006 72.2666 35.533 72.2575 35.4693 72.2738C34.9249 72.3542 34.6829 73.2914 34.5451 73.7524C34.0132 75.8824 34.2839 78.1337 35.3054 80.0771C35.4264 80.3068 35.7342 80.1391 35.6952 79.9132C35.3138 77.698 34.4999 75.6329 35.591 73.2286Z" fill="#191919"/>
<path d="M41.2897 67.9621C40.617 68.2765 40.05 68.7792 39.6572 69.4093C38.2254 71.1704 36.9711 73.4759 37.0699 75.7447C37.0814 76.0012 37.4796 76.0831 37.5293 75.8059C37.9061 73.6406 38.8573 71.616 40.2836 69.9437C40.8121 69.4602 41.2442 68.8808 41.5569 68.2362C41.5676 68.1989 41.5682 68.1593 41.5587 68.1217C41.5492 68.084 41.5299 68.0495 41.5028 68.0217C41.4757 67.9938 41.4417 67.9737 41.4043 67.9632C41.3668 67.9528 41.3273 67.9524 41.2897 67.9621Z" fill="#191919"/>
<path d="M46.5876 66.2454C46.5864 66.2085 46.577 66.1723 46.5602 66.1394C46.5433 66.1065 46.5194 66.0777 46.4902 66.0551C46.4609 66.0325 46.427 66.0166 46.3909 66.0086C46.3548 66.0006 46.3174 66.0007 46.2814 66.0088C45.8051 66.162 45.8656 66.4568 44.9031 67.4568C43.4743 68.9445 41.6994 70.1735 41.217 72.2615C41.1672 72.4775 41.4957 72.6444 41.5999 72.4147C42.8487 69.6145 46.7461 67.5249 46.5876 66.2454Z" fill="#191919"/>
<path d="M48.6612 68.4344C49.0181 68.1076 49.2444 67.6626 49.2983 67.1818C49.2899 67.0286 49.1329 66.8617 48.9698 66.9252C48.3733 67.155 48.3656 67.6044 47.0188 69.0501C46.3351 69.8024 45.5898 70.4962 44.7906 71.1243C44.5869 71.2775 44.8419 71.5753 45.0479 71.4628C46.4457 70.7096 47.6752 69.6791 48.6612 68.4344Z" fill="#191919"/>
<path d="M50.6022 70.074C50.8456 69.7432 51.1948 69.3252 51.0845 68.8933C51.0772 68.8646 51.064 68.8376 51.0459 68.8142C51.0277 68.7907 51.005 68.7712 50.979 68.7569C50.9531 68.7425 50.9244 68.7336 50.8949 68.7308C50.8654 68.7279 50.8356 68.7311 50.8074 68.7402C50.4375 68.8221 50.24 69.2103 50.0371 69.4997C49.2254 70.6161 48.2922 71.6387 47.2545 72.5487C47.0616 72.7157 47.3043 73.0181 47.5118 72.888C48.7238 72.1715 49.7756 71.2137 50.6022 70.074Z" fill="#191919"/>
<path d="M52.144 71.9966C52.4035 71.6812 52.7205 71.2677 52.5651 70.8481C52.552 70.8059 52.5238 70.7701 52.486 70.7474C52.4481 70.7246 52.4033 70.7166 52.3599 70.7248C51.781 70.8626 51.7841 71.512 50.5322 72.5005C49.7126 73.1055 48.8553 73.6577 47.9655 74.1536C47.7718 74.27 47.8943 74.597 48.1187 74.5234C49.6823 74.1011 51.084 73.2212 52.144 71.9966Z" fill="#191919"/>
<path d="M53.0039 71.8742C52.9796 71.8301 52.9408 71.7957 52.894 71.7769C52.8473 71.758 52.7955 71.7559 52.7474 71.7708C52.337 71.9147 52.1547 72.44 51.9572 72.7876C51.6939 73.2301 51.3841 73.6431 51.033 74.0197C50.3288 74.765 49.5067 75.3892 48.5996 75.8673C48.5542 75.8951 48.5203 75.9383 48.5043 75.9891C48.4883 76.0399 48.4912 76.0947 48.5125 76.1435C48.5338 76.1923 48.572 76.2318 48.6201 76.2546C48.6682 76.2775 48.7229 76.2821 48.7742 76.2677C50.3804 75.7554 51.75 74.6846 52.6348 73.2494C52.8592 72.8749 53.216 72.3213 53.0039 71.8742Z" fill="#191919"/>
<path d="M35.0164 112.592C35.3288 113.726 35.7951 114.821 36.1872 115.94C36.9092 118.003 36.9835 118.62 37.4192 119.071C37.4462 119.098 37.4799 119.118 37.5169 119.128C37.5539 119.139 37.5929 119.139 37.6301 119.13C37.6674 119.121 37.7016 119.102 37.7295 119.075C37.7573 119.049 37.7778 119.016 37.789 118.979C37.8365 118.436 37.7519 117.89 37.5425 117.387C37.0253 115.662 36.3267 113.996 35.4582 112.418C35.4308 112.366 35.3851 112.325 35.3299 112.305C35.2746 112.284 35.2137 112.285 35.1589 112.307C35.1041 112.328 35.0592 112.37 35.0329 112.422C35.0066 112.475 35.0007 112.536 35.0164 112.592Z" fill="#191919"/>
<path d="M45.7045 95.7133C45.6324 95.7306 45.5632 95.7585 45.4993 95.796C45.605 95.4695 45.6085 95.1184 45.5092 94.7899C45.1938 92.6597 45.4388 91.3259 45.2321 90.7317C45.2224 90.699 45.2035 90.6699 45.1775 90.6478C45.1516 90.6257 45.1198 90.6117 45.086 90.6074C45.0523 90.6031 45.018 90.6087 44.9873 90.6236C44.9567 90.6384 44.931 90.6619 44.9135 90.6911C44.748 91.0556 44.6606 91.4508 44.657 91.8511C44.585 92.8108 44.6125 93.7754 44.7389 94.7294C44.7918 95.1299 44.7803 95.6023 45.1218 95.8779C45.1551 95.9059 45.1936 95.927 45.2351 95.94C45.0299 96.0525 44.8438 96.1697 44.6294 96.2784C43.3565 96.7822 41.9534 96.8543 40.6356 96.4836C38.2412 95.9193 37.3339 94.3749 36.3645 93.3213C36.331 93.2909 36.2887 93.2719 36.2437 93.2673C36.1987 93.2626 36.1534 93.2725 36.1144 93.2954C36.0754 93.3183 36.0448 93.3531 36.0269 93.3947C36.0091 93.4362 36.005 93.4824 36.0153 93.5265C36.4066 95.0127 38.1868 96.819 40.5536 97.3458C41.5685 97.5903 42.6207 97.6392 43.6539 97.4897C44.5069 97.3496 45.7351 96.9859 46.036 96.0732C46.0511 96.0258 46.0533 95.9754 46.0425 95.9269C46.0318 95.8784 46.0084 95.8336 45.9747 95.797C45.941 95.7605 45.8983 95.7335 45.8509 95.7188C45.8034 95.7041 45.7529 95.7022 45.7045 95.7133Z" fill="#191919"/>
<path d="M35.1295 93.5374C33.9022 93.6177 32.6975 93.9059 31.5667 94.3896C24.2351 96.9753 20.5674 101.917 19.9135 106.679C19.1432 112.293 21.6417 119.39 24.1432 122.121C24.3791 122.377 24.7474 122.05 24.6027 121.761C23.3789 119.657 22.3874 117.427 21.6455 115.109C20.9464 112.773 20.6342 110.338 20.7213 107.901C20.9365 103.27 23.9671 99.4225 27.8262 97.0894C31.0881 95.1178 34.2849 94.5106 35.239 93.9585C35.2822 93.9341 35.3162 93.8961 35.3355 93.8504C35.3549 93.8047 35.3587 93.7539 35.3462 93.7058C35.3337 93.6578 35.3057 93.6152 35.2665 93.5847C35.2273 93.5543 35.1791 93.5376 35.1295 93.5374Z" fill="#191919"/>
<path d="M51.5463 96.2884C51.4391 95.8787 50.9605 95.6536 50.6022 95.4874C49.28 94.8564 47.8048 94.6172 46.351 94.7983C46.3065 94.8127 46.2677 94.8408 46.2401 94.8786C46.2126 94.9165 46.1978 94.9621 46.1978 95.0089C46.1978 95.0557 46.2126 95.1012 46.2401 95.1391C46.2677 95.1769 46.3065 95.205 46.351 95.2194C47.674 95.4029 48.9681 95.7549 50.2017 96.2669C50.5509 96.4201 50.9843 96.6865 51.3824 96.564C51.4397 96.5475 51.4885 96.5098 51.5189 96.4586C51.5493 96.4074 51.5591 96.3465 51.5463 96.2884Z" fill="#191919"/>
<path d="M76.6597 66.0923C76.1452 64.5233 74.4032 64.4146 73.7746 65.8978C73.2324 67.1757 73.9897 68.3702 75.4997 72.2837C75.5049 72.3046 75.5151 72.324 75.5293 72.3402C75.5435 72.3565 75.5613 72.3691 75.5813 72.3771C75.6014 72.3851 75.623 72.3882 75.6445 72.3862C75.666 72.3843 75.6867 72.3772 75.7049 72.3656C76.7358 71.6609 77.662 70.8141 78.456 69.8503C79.126 69.008 79.9875 67.8993 80.0066 66.7699C80.0418 64.9292 77.6773 64.5203 76.6597 66.0923Z" fill="#38A1FF"/>
<path d="M94.6167 55.0049C94.8798 55.0605 95.1491 55.0814 95.4176 55.0669C95.5348 55.0669 95.6472 55.0204 95.73 54.9375C95.8129 54.8547 95.8594 54.7423 95.8594 54.6251C95.8594 54.508 95.8129 54.3956 95.73 54.3127C95.6472 54.2299 95.5348 54.1833 95.4176 54.1833C95.149 54.1608 94.8786 54.1818 94.6167 54.2453C94.5363 54.2712 94.4662 54.3219 94.4164 54.3901C94.3667 54.4584 94.3398 54.5407 94.3398 54.6251C94.3398 54.7096 94.3667 54.7919 94.4164 54.8601C94.4662 54.9284 94.5363 54.9791 94.6167 55.0049Z" fill="#191919"/>
<path d="M95.4376 58.5983C95.1691 58.5789 94.8991 58.5998 94.6367 58.6603C94.5547 58.6844 94.4827 58.7345 94.4315 58.8029C94.3802 58.8714 94.3525 58.9546 94.3525 59.0401C94.3525 59.1256 94.3802 59.2088 94.4315 59.2773C94.4827 59.3457 94.5547 59.3958 94.6367 59.4199C94.8997 59.4768 95.1691 59.4974 95.4376 59.4811C95.5544 59.4801 95.6661 59.4334 95.7487 59.3509C95.8313 59.2684 95.8783 59.1568 95.8795 59.0401C95.8799 58.982 95.8687 58.9243 95.8467 58.8705C95.8246 58.8168 95.7921 58.7679 95.751 58.7268C95.7099 58.6857 95.661 58.6531 95.6072 58.6311C95.5534 58.609 95.4958 58.5979 95.4376 58.5983Z" fill="#191919"/>
<path d="M97.502 52.2844C97.4603 52.2625 97.4127 52.2545 97.3662 52.2615C97.3196 52.2686 97.2766 52.2903 97.2433 52.3236C97.21 52.3569 97.1883 52.4 97.1812 52.4465C97.1741 52.493 97.1822 52.5406 97.2041 52.5823C97.6852 53.2343 98.0882 53.9405 98.4047 54.6864C98.9492 56.3962 98.873 58.2432 98.1896 59.9024C97.6582 61.3618 97.1421 61.7492 97.3886 62.2431C97.4031 62.2684 97.4241 62.2893 97.4494 62.3037C97.4747 62.3181 97.5035 62.3255 97.5326 62.325C97.9637 62.2944 98.1589 61.812 98.3335 61.4629C99.0562 60.0907 99.4696 58.5769 99.5448 57.0279C99.5793 55.4054 99.0203 53.152 97.502 52.2844Z" fill="#191919"/>
<path d="M77.5654 36.5554C72.2699 26.7039 58.5646 26.2951 51.3639 31.1236C46.0622 34.6802 43.7958 41.1037 43.9099 47.2737C44.0431 54.4338 49.184 60.224 55.2759 61.237C56.1281 61.3787 56.9903 61.4422 57.8525 61.5042C57.9574 62.5525 59.3609 64.6972 61.5799 65.8366C62.0822 66.0946 62.8318 66.5448 63.4069 66.2677C63.9145 66.2677 63.5807 65.1811 63.56 64.9231C63.4413 63.3718 63.7599 62.1543 63.704 60.9805C67.3439 60.9195 70.8355 59.5279 73.5195 57.0685C76.263 54.6183 77.9177 51.0325 78.8173 47.531C79.7975 43.8454 79.3504 39.9256 77.5654 36.5554ZM78.3434 44.1933C78.0202 47.8384 76.7489 51.3356 74.6558 54.3373C72.0478 57.9131 67.74 59.8725 63.3311 60.2002C63.254 60.2036 63.1797 60.2296 63.1172 60.2748C63.0548 60.32 63.007 60.3825 62.9797 60.4546C62.9524 60.5267 62.9468 60.6052 62.9637 60.6805C62.9805 60.7557 63.0191 60.8243 63.0746 60.8779C62.7207 62.3245 62.5893 63.8166 62.6848 65.3029C62.4604 65.2278 62.241 65.1385 62.0278 65.0356C60.519 64.1895 59.2884 62.9233 58.4857 61.3909C58.5078 61.357 58.5214 61.3183 58.5254 61.2781C58.5294 61.2379 58.5237 61.1972 58.5086 61.1597C58.4936 61.1221 58.4698 61.0888 58.4391 61.0624C58.4085 61.036 58.3719 61.0173 58.3326 61.0081C56.5036 60.8395 54.7055 60.4261 52.9865 59.7791C50.9079 58.8577 49.0871 57.4404 47.6838 55.6516C46.2805 53.8627 45.3375 51.7569 44.9374 49.5187C44.49 46.224 44.8169 42.8702 45.8923 39.7239C47.8272 34.2246 52.0653 30.4168 58.6335 29.3441C61.8226 28.8143 65.0912 29.0321 68.1818 29.9804C71.1905 30.9225 73.8101 32.8197 75.6438 35.3844C77.4774 37.9491 78.4252 41.0416 78.3434 44.1933Z" fill="#191919"/>
<path d="M53.5698 44.5762C53.36 44.7217 53.1891 44.9165 53.0722 45.1434C52.9552 45.3704 52.8958 45.6226 52.8991 45.8779C52.9101 46.2334 53.0537 46.572 53.3016 46.827C53.5496 47.082 53.884 47.2351 54.239 47.2562C54.5367 47.2424 54.8196 47.1229 55.0372 46.9193C55.2547 46.7157 55.3925 46.4412 55.4259 46.1451C55.6372 44.7983 54.4228 44.0402 53.5698 44.5762Z" fill="#38A1FF"/>
<path d="M60.4189 44.5821C60.2044 44.7255 60.0294 44.9206 59.9102 45.1494C59.7909 45.3783 59.7312 45.6335 59.7367 45.8915C59.7475 46.2472 59.8912 46.5859 60.1393 46.841C60.3875 47.0961 60.7221 47.249 61.0774 47.2697C61.375 47.2561 61.658 47.1367 61.8754 46.933C62.0928 46.7293 62.2304 46.4548 62.2635 46.1587C62.4725 44.8248 61.2956 44.0706 60.4189 44.5821Z" fill="#38A1FF"/>
<path d="M68.2001 44.7338C68.0188 44.4982 67.7571 44.3375 67.465 44.2824C67.1728 44.2274 66.8706 44.2817 66.6159 44.4352C66.4064 44.5809 66.2358 44.7758 66.119 45.0027C66.0022 45.2296 65.9428 45.4817 65.9459 45.7369C65.9566 46.0925 66.1001 46.4313 66.3481 46.6864C66.5961 46.9415 66.9307 47.0944 67.2859 47.1151C68.4582 47.1197 68.8364 45.5187 68.2001 44.7338Z" fill="#38A1FF"/>
<path d="M24.9757 32.243C24.8164 31.8241 24.6947 31.1549 24.2261 30.9903C24.1792 30.9769 24.1295 30.9766 24.0825 30.9892C24.0354 31.0019 23.9927 31.0272 23.9588 31.0623C23.5921 31.4857 23.9244 32.1932 24.1028 32.6434C24.5836 33.8555 26.1656 36.7254 27.1656 36.8012C27.2334 36.8006 27.2983 36.7734 27.3463 36.7254C27.3943 36.6774 27.4215 36.6125 27.4221 36.5447C27.3999 35.6174 26.2996 35.7369 24.9757 32.243Z" fill="#191919"/>
<path d="M33.5177 27.2943C33.253 27.8008 33.0966 28.3567 33.0583 28.9268C32.8546 30.3518 32.7589 32.8258 33.288 34.1833C33.3061 34.2463 33.3463 34.3007 33.4012 34.3365C33.4561 34.3724 33.5221 34.3873 33.587 34.3786C33.652 34.3698 33.7117 34.3381 33.7552 34.289C33.7987 34.24 33.8231 34.1769 33.824 34.1114C33.9848 32.3449 33.6134 32.1068 33.958 29.0087C34.0566 28.4636 34.0842 27.9079 34.0399 27.3556C33.9794 27.1098 33.6318 27.1106 33.5177 27.2943Z" fill="#191919"/>
<path d="M44.2259 24.2039C44.2075 24.0186 44.0298 23.8004 43.8147 23.8854C43.3399 24.0745 43.1531 24.5355 42.9219 24.9535C42.1334 26.2978 41.4997 27.727 41.0329 29.2139C41.0195 29.2719 41.0269 29.3329 41.0539 29.386C41.081 29.4391 41.1258 29.4809 41.1807 29.5043C41.2355 29.5276 41.2968 29.5308 41.3538 29.5134C41.4108 29.496 41.4598 29.4591 41.4923 29.4091C42.4479 27.8012 42.7473 27.1419 43.6899 25.4872C43.9081 25.1074 44.2726 24.6756 44.2259 24.2039Z" fill="#191919"/>
<path d="M120.931 69.861C120.337 69.7363 119.73 69.6813 119.124 69.6971C117.906 69.6358 115.731 69.4574 114.329 69.2966C115.151 68.0807 116.722 65.4138 116.886 64.2346C116.92 63.9888 116.598 63.691 116.393 63.9574C115.82 64.8384 115.308 65.7579 114.862 66.7093C114.323 67.6485 113.737 68.56 113.106 69.4406C112.88 69.7584 113.188 70.0953 113.496 70.1297C114.526 70.2408 119.891 70.8365 120.909 70.6022C120.989 70.5809 121.061 70.5341 121.113 70.4688C121.165 70.4035 121.194 70.3232 121.196 70.2399C121.199 70.1565 121.174 70.0746 121.127 70.0063C121.079 69.938 121.01 69.887 120.931 69.861Z" fill="#191919"/>
<path d="M149.607 57.9926C149.51 51.8938 146.494 45.4994 140.878 42.6947C134.416 39.4665 123.683 40.3026 118.856 46.5553C115.294 51.1664 114.768 60.1189 116.422 63.1879C116.598 63.5148 117.088 63.2805 117.007 62.9413C116.352 60.0151 116.303 56.9858 116.863 54.04C117.44 50.785 118.621 47.6763 121.176 45.4642C125.574 41.661 133.049 40.9466 138.393 42.6824C144.244 44.5829 147.642 49.7613 148.517 55.7935C149.01 59.1963 148.451 61.9528 147.315 65.1978C146.214 68.3433 144.729 70.6098 141.556 72.4566C137.171 74.9202 131.995 75.5652 127.141 74.253C125.04 73.7579 123.125 72.6754 121.617 71.132C121.399 70.9298 120.973 71.2086 121.176 71.4712C126.294 78.0164 142.112 77.1374 146.956 68.2882C148.619 65.1058 149.527 61.5826 149.607 57.9926Z" fill="#191919"/>
<path d="M141.373 53.5163C140.729 53.3123 140.057 53.2118 139.382 53.2184C138.684 53.1817 126.271 52.7874 125.922 52.7874C125.543 52.8052 125.166 52.8463 124.792 52.9106C124.495 52.9451 124.36 53.4045 124.71 53.4857C125.907 53.7613 124.615 53.7024 139.299 54.2452C139.994 54.3046 140.694 54.253 141.373 54.0921C141.433 54.0706 141.484 54.0314 141.52 53.9798C141.556 53.9282 141.575 53.8668 141.575 53.8039C141.575 53.741 141.555 53.6797 141.519 53.6282C141.483 53.5768 141.432 53.5377 141.373 53.5163Z" fill="#191919"/>
<path d="M140.633 58.4752C140.01 58.3142 139.367 58.2418 138.723 58.26C137.929 58.2163 129.444 57.7569 127.085 57.7569C126.424 57.7154 125.762 57.7602 125.113 57.8902C125.057 57.9075 125.008 57.9422 124.973 57.9893C124.939 58.0365 124.92 58.0935 124.92 58.152C124.92 58.2106 124.939 58.2676 124.973 58.3147C125.008 58.3618 125.057 58.3966 125.113 58.4139C125.728 58.5615 126.36 58.6304 126.992 58.6191C140.522 59.2638 139.886 59.3779 140.637 59.2248C141.033 59.1428 140.974 58.5946 140.633 58.4752Z" fill="#191919"/>
<path d="M139.946 62.6643C138.715 62.4495 137.468 62.3498 136.219 62.3665C134.984 62.3112 133.748 62.2701 132.512 62.2432C130.043 62.1223 127.568 62.1909 125.109 62.4484C124.792 62.4905 124.904 62.9545 125.181 62.9844C128.199 63.2853 130.382 63.0196 136.126 63.3129C137.357 63.4481 138.596 63.496 139.833 63.4561C140.264 63.4124 140.418 62.7777 139.946 62.6643Z" fill="#191919"/>
<path d="M104.595 34.1012C103.464 33.7829 102.284 33.6716 101.114 33.7727C100.143 31.579 100.24 29.8677 100.808 27.5813C101.001 27.0057 101.098 26.4021 101.095 25.7949C101.063 25.5416 100.972 25.2993 100.829 25.0872C100.687 24.8751 100.497 24.699 100.275 24.5727C100.053 24.4465 99.8046 24.3736 99.5495 24.3598C99.2944 24.346 99.0396 24.3917 98.8052 24.4932C97.7431 24.9861 96.9103 25.8674 96.4783 26.9557C96.0085 28.0461 95.7306 29.2095 95.6567 30.3945C94.6033 30.2069 93.5307 30.1519 92.4637 30.2306C91.3574 30.2394 90.2693 30.5141 89.2914 31.0315C87.9086 31.909 87.4958 33.7352 88.9009 34.7482C88.5842 34.9332 88.3378 35.218 88.2003 35.5581C88.0629 35.8981 88.0421 36.2742 88.1413 36.6273C88.2447 36.9086 88.4115 37.1623 88.6287 37.3688C88.8459 37.5753 89.1078 37.729 89.394 37.8179C89.203 37.9239 89.0581 38.097 88.9874 38.3036C88.9167 38.5103 88.9251 38.7358 89.0112 38.9366C89.2531 39.5959 89.8534 39.7483 90.479 39.8401C90.3736 39.9722 90.3104 40.133 90.2975 40.3015C90.2847 40.47 90.3229 40.6385 90.407 40.785C90.9109 41.684 92.4193 41.8524 93.3335 41.9757C94.4839 42.1498 95.6564 42.1116 96.793 41.8631C97.2143 41.8014 97.6048 41.6068 97.9078 41.3077C98.2108 41.0086 98.4104 40.6205 98.4775 40.2C99.7271 39.9703 99.966 39.9642 100.059 39.7789C100.264 40.272 100.901 40.3738 101.425 40.4872C101.811 40.5655 102.202 40.6167 102.595 40.6403C102.944 40.7074 103.305 40.6682 103.632 40.5278C104.194 40.1954 104.201 39.3065 104.299 38.7513C104.452 37.9006 104.579 37.0339 104.741 36.174C104.85 35.5875 105.296 34.4565 104.595 34.1012ZM89.1276 36.6679C88.6383 36.1319 89.0739 35.1671 90.113 35.272C91.6513 35.4251 92.8289 35.7314 94.5694 35.3233C94.6613 35.2919 94.7746 35.272 94.8665 35.2406C95.1456 35.3258 95.4067 35.4616 95.6368 35.6411C95.685 35.6767 95.7256 35.7218 95.756 35.7735C95.7864 35.8252 95.806 35.8826 95.8136 35.9421C95.8213 36.0016 95.8168 36.0621 95.8005 36.1198C95.7842 36.1776 95.7564 36.2314 95.7187 36.2781C95.5242 36.576 95.0426 36.661 94.7126 36.7705C93.9101 37.027 93.085 37.2064 92.2485 37.3064C91.7988 37.3934 91.3383 37.4107 90.8833 37.3578C90.2412 37.3132 89.6282 37.0724 89.1276 36.6679ZM90.041 38.8654C89.3128 38.4328 90.564 38.1931 90.8733 38.1257C91.9472 38.0777 93.0152 37.9404 94.0663 37.7153C94.5519 37.6249 95.0267 37.4837 95.4829 37.2942C95.832 37.4473 96.2486 37.6633 96.1505 38.0951C95.9476 38.9619 92.6084 39.5377 91.7455 39.2146C91.1641 39.1671 90.5906 39.0499 90.0372 38.8654H90.041ZM94.0992 41.2391C93.3439 41.1892 92.5979 41.0443 91.8787 40.808C91.6934 40.7467 91.1628 40.602 91.1291 40.3769C91.1008 40.1916 91.5119 40.0277 91.6322 40.0277C93.332 40.0277 94.5418 40.0392 96.0464 39.2169C96.3297 39.393 97.1904 39.1839 97.6896 39.7605C97.6689 39.8274 97.6689 39.8989 97.6896 39.9657C98.0051 41.4114 94.8703 41.2889 94.0931 41.2368L94.0992 41.2391ZM100.003 39.2781C99.9543 39.2273 99.8938 39.1895 99.827 39.1679C99.7601 39.1464 99.689 39.1419 99.6199 39.1548C99.1169 39.2475 98.6031 39.3394 98.0885 39.432C97.9911 39.1946 97.8177 38.9961 97.5954 38.8677C97.3226 38.7174 97.0224 38.6232 96.7126 38.5905C97.0319 38.0951 96.9561 37.4152 96.2095 36.8241C96.3646 36.6768 96.4763 36.4899 96.5324 36.2836C96.5886 36.0773 96.5871 35.8596 96.528 35.6541C96.4635 35.4647 96.361 35.2906 96.2269 35.1422C96.0927 34.9938 95.9297 34.8744 95.7478 34.7911C95.7784 34.7605 95.7991 34.7505 95.8297 34.7199C96.672 33.8853 95.7868 32.8953 94.9775 32.5224C94.0028 32.0124 92.8658 31.9091 91.8152 32.2352C91.466 32.3884 91.6712 32.9029 91.9997 32.9129C92.7852 32.7889 93.5892 32.8594 94.3412 33.1181C94.6689 33.2413 95.1689 33.4381 95.3267 33.785C95.5372 34.2498 94.8343 34.4144 94.5357 34.504C93.1013 34.7979 91.6205 34.7804 90.1934 34.4527C89.4775 34.223 88.7148 33.775 88.8687 32.9129C88.973 32.5353 89.1781 32.1932 89.462 31.9234C89.746 31.6536 90.0981 31.4662 90.4805 31.3815C92.2483 30.8885 94.1103 30.839 95.9017 31.2375C95.9606 31.2521 96.022 31.2532 96.0813 31.241C96.1407 31.2287 96.1966 31.2032 96.2449 31.1665C96.2931 31.1298 96.3325 31.0827 96.3602 31.0287C96.3879 30.9748 96.4031 30.9153 96.4048 30.8547C96.4123 29.4897 96.7318 28.1445 97.3389 26.922C98.5005 24.8248 100.024 24.7742 100.368 25.6288C100.733 26.5369 99.8718 27.4037 99.7516 30.0024C99.6529 31.4461 99.9889 32.8863 100.716 34.1372C100.66 34.2628 100.616 34.3932 100.583 34.527C100.132 36.0676 99.9348 37.6717 100 39.2758L100.003 39.2781ZM104.079 35.7973C104.007 36.1977 103.615 38.4872 103.483 39.2268C103.421 39.576 103.442 39.857 103.042 39.9045C102.63 39.9216 102.217 39.8801 101.817 39.7812C101.55 39.7299 100.87 39.6794 100.749 39.4114C100.732 37.8955 100.912 36.3838 101.285 34.9144C101.314 34.8218 101.337 34.5316 101.429 34.4933C101.501 34.4659 101.579 34.4555 101.655 34.4626C101.885 34.4626 104.174 34.7467 104.191 34.7605C104.337 34.8845 104.114 35.6173 104.072 35.795L104.079 35.7973Z" fill="#191919"/>
<path d="M49.1028 85.498C49.2733 86.1578 49.3865 86.8311 49.4412 87.5103C49.5491 88.0934 49.4512 88.6959 49.1641 89.2147C47.9389 90.8993 44.1924 89.1657 42.4091 88.0953C41.879 87.8212 41.4139 87.4365 41.0453 86.9671C40.6768 86.4978 40.4133 85.9547 40.2728 85.3748C40.1816 84.8816 39.4305 85.0876 39.5132 85.58C39.6785 86.2603 39.9876 86.8972 40.4198 87.448C40.8519 87.9988 41.3971 88.4506 42.0186 88.7729C43.3645 89.5639 44.8116 90.1685 46.3203 90.57C47.5331 90.8112 49.0768 90.7416 49.8524 89.6045C50.1888 89.0319 50.3293 88.3652 50.2529 87.7056C50.1986 86.8846 50.0704 86.0702 49.87 85.2722C49.8312 85.1816 49.7605 85.1085 49.6713 85.0666C49.5821 85.0247 49.4807 85.0169 49.3862 85.0447C49.2917 85.0725 49.2107 85.134 49.1585 85.2176C49.1062 85.3011 49.0864 85.4009 49.1028 85.498Z" fill="#191919"/>
<path d="M135.284 121.381C132.604 117.844 129.065 117.152 126.331 116.371C126.187 116.341 126.065 116.289 125.921 116.248C126.803 116.054 127.638 115.686 128.376 115.166C129.115 114.646 129.742 113.984 130.223 113.219C130.267 113.137 130.284 113.043 130.271 112.95C130.258 112.858 130.216 112.772 130.151 112.706C126.119 109.135 126.37 103.23 126.198 98.2808C126.032 93.5266 125.233 88.074 120.87 85.303C119.833 84.6029 118.626 84.196 117.377 84.1255C116.128 84.055 114.884 84.3235 113.775 84.9025C111.554 82.9415 104.492 88.5779 105.91 94.4921C105.958 94.7006 106.049 94.8966 106.177 95.0672C105.716 96.5174 105.423 98.0161 105.305 99.5335C105.092 101.233 105.178 102.956 105.561 104.625C105.722 105.316 106.021 105.968 106.439 106.541C106.857 107.114 107.386 107.598 107.994 107.962C108.723 108.335 109.539 108.505 110.356 108.455C110.384 109.508 110.281 110.559 110.05 111.586C109.918 112.172 109.729 112.743 109.484 113.291C109.353 113.579 109.081 114.155 109.556 114.276C110.112 114.419 110.409 113.308 110.594 112.767C111.074 111.362 111.208 109.861 110.984 108.393C112.975 108.082 115.391 106.857 116.282 105.101C116.318 105.032 116.329 104.953 116.313 104.877C116.296 104.802 116.253 104.734 116.191 104.687C116.13 104.64 116.053 104.617 115.976 104.621C115.898 104.626 115.825 104.657 115.769 104.711C114.94 105.699 113.907 106.494 112.739 107.041C111.504 107.577 109.874 107.936 108.605 107.339C105.903 106.07 105.981 102.37 106.131 99.8543C106.277 98.1907 106.528 96.538 106.88 94.9056C110.233 91.192 111.838 90.8076 112.435 89.9469C113.391 92.6775 115.143 95.059 117.465 96.7846C118.053 97.1905 118.696 97.5088 119.375 97.7295C119.406 97.7295 119.436 97.7395 119.457 97.7295C119.523 97.7785 119.585 97.8334 119.642 97.8934C119.709 97.9588 119.795 98.0011 119.887 98.0141C119.979 98.027 120.073 98.0099 120.155 97.9653C120.468 97.7972 120.831 97.7451 121.178 97.8184C121.526 97.8917 121.837 98.0856 122.055 98.3658C122.277 98.6612 122.424 99.0062 122.483 99.3711C122.542 99.7359 122.511 100.11 122.393 100.46C122.281 100.809 122.096 101.13 121.85 101.401C121.604 101.673 121.302 101.889 120.966 102.035C120.63 102.18 120.267 102.253 119.9 102.247C119.534 102.241 119.173 102.157 118.841 102.001C118.759 101.956 118.665 101.938 118.573 101.951C118.48 101.964 118.394 102.007 118.328 102.073C118.08 102.434 117.909 102.843 117.824 103.273C116.625 107.42 116.764 111.965 116.89 115.995C116.897 116.07 116.922 116.142 116.963 116.205C117.004 116.268 117.06 116.321 117.126 116.357C117.192 116.394 117.266 116.413 117.341 116.414C117.416 116.415 117.491 116.398 117.558 116.364C118.518 116.758 119.549 116.947 120.586 116.918C121.917 116.898 123.245 116.781 124.56 116.57C126.276 117.427 129.077 117.812 131.254 119.044C132.683 119.851 133.909 120.973 134.84 122.325C135.77 123.677 136.38 125.224 136.624 126.847C136.727 127.467 136.813 128.72 136.962 129.136C136.973 129.172 136.994 129.204 137.023 129.228C137.051 129.252 137.087 129.267 137.124 129.271C137.161 129.276 137.198 129.269 137.232 129.252C137.265 129.235 137.293 129.209 137.312 129.177C137.83 127.946 137.527 124.338 135.284 121.381ZM117.543 94.5327C117.484 94.5684 117.417 94.5873 117.348 94.5873C117.279 94.5873 117.212 94.5684 117.153 94.5327C115.73 93.6396 114.643 92.3003 114.063 90.7241C113.823 90.2413 113.734 89.6977 113.806 89.1636C113.815 89.1293 113.834 89.0981 113.859 89.0733C113.885 89.0485 113.916 89.0309 113.951 89.0225C113.985 89.0141 114.022 89.015 114.056 89.0253C114.09 89.0356 114.12 89.0548 114.145 89.0809C114.463 89.5742 114.718 90.1054 114.904 90.6621C115.432 91.7526 116.189 92.716 117.125 93.486C117.408 93.7241 118.058 94.1866 117.543 94.5327ZM119.873 86.0939C119.428 86.1759 119.251 85.8022 118.272 85.5082C117.659 85.3236 117.026 85.3596 116.403 85.221C116.376 85.2131 116.351 85.1972 116.332 85.1753C116.314 85.1533 116.302 85.1263 116.299 85.0977C116.295 85.069 116.301 85.0401 116.314 85.0145C116.327 84.9889 116.348 84.9677 116.373 84.9538C117.013 84.7217 117.71 84.7002 118.364 84.8925C118.857 85.0036 119.895 85.2616 120.017 85.8474C120.027 85.9599 119.976 86.0832 119.873 86.0939Z" fill="#191919"/>
<path d="M75.694 89.204C76.0478 87.2323 76.1167 85.0149 75.0883 83.2186C74.6854 82.4596 74.0719 81.8331 73.3216 81.4142C72.5714 80.9953 71.7161 80.8019 70.8586 80.8571C69.011 81.0868 67.7958 82.5861 66.331 83.5777C62.6495 86.0769 58.3325 85.1941 55.7046 88.3112C52.795 91.7569 53.3532 96.6574 55.1503 100.486C54.4481 100.8 53.8702 101.339 53.5071 102.017C53.2516 102.518 53.1253 103.074 53.1398 103.636C53.1542 104.197 53.3089 104.747 53.5898 105.233C53.9146 105.763 54.3627 106.207 54.896 106.527C55.4292 106.847 56.0318 107.034 56.6526 107.071C57.3028 107.174 57.9689 107.104 58.5829 106.866C59.4274 109.058 59.7407 111.42 59.4971 113.757C59.4692 113.941 59.4623 114.127 59.4765 114.312C59.4045 114.24 59.334 114.177 59.2605 114.106C59.2235 114.072 59.1766 114.051 59.1265 114.045C59.0765 114.04 59.026 114.05 58.9825 114.076C58.9389 114.101 58.9046 114.139 58.8845 114.185C58.8644 114.232 58.8596 114.283 58.8708 114.332C59.2177 115.595 60.5247 116.393 61.6733 116.847C64.1439 117.771 66.8586 117.807 69.3532 116.951C70.5156 116.546 71.9804 115.933 72.7001 114.897C72.9359 114.558 72.4949 114.249 72.1871 114.383C71.8565 114.54 71.5403 114.725 71.2422 114.938C71.2215 114.383 70.6833 114.198 70.5852 112.053C70.5715 111.755 70.6159 111.448 70.5852 111.16C71.2384 111.077 71.8694 110.869 72.4436 110.547C73.0969 110.118 73.6418 109.543 74.0355 108.868C74.4292 108.193 74.6609 107.436 74.7124 106.656C74.7968 104.686 74.51 102.718 73.867 100.855C73.331 98.825 72.5842 96.8566 71.6388 94.982C73.89 93.5379 75.1978 91.9728 75.694 89.204ZM73.867 105.066C73.9804 105.82 73.9309 106.59 73.7218 107.323C73.5127 108.056 73.1489 108.736 72.6549 109.317C71.5669 110.415 69.8012 110.477 68.3433 110.353C66.7823 110.24 65.304 109.608 64.1442 108.557C64.1 108.516 64.0426 108.492 63.9824 108.489C63.9221 108.486 63.8627 108.505 63.8148 108.541C63.7669 108.578 63.7334 108.63 63.7204 108.689C63.7074 108.748 63.7157 108.81 63.7437 108.863C64.095 109.527 64.6438 110.065 65.3142 110.403C66.7475 111.081 68.3326 111.375 69.9137 111.255C69.6564 112.349 69.739 113.495 70.1503 114.541C70.2682 114.837 70.3655 115.177 70.6427 115.331C69.3638 116.043 67.9479 116.475 66.4893 116.597C65.0307 116.719 63.5628 116.529 62.1832 116.04C61.3713 115.732 60.6178 115.287 59.955 114.726C60.491 114.366 60.4635 113.432 60.5194 112.857C60.7575 110.411 59.988 107.454 59.2873 106.481C59.4416 106.382 59.5698 106.248 59.661 106.089C59.7522 105.93 59.8036 105.751 59.8111 105.568C59.8106 105.501 59.7926 105.435 59.7587 105.377C59.7248 105.319 59.6764 105.271 59.6181 105.238C59.5599 105.205 59.494 105.187 59.4269 105.188C59.3599 105.188 59.294 105.206 59.236 105.239C58.6128 105.536 58.4573 106.376 56.6487 106.092C56.1922 106.056 55.7508 105.911 55.3615 105.67C54.9721 105.428 54.6461 105.098 54.4106 104.705C54.224 104.364 54.1201 103.985 54.1075 103.597C54.0948 103.209 54.1737 102.823 54.3377 102.472C54.5017 102.12 54.7463 101.811 55.0516 101.572C55.3569 101.332 55.7144 101.167 56.0951 101.092C56.7646 100.902 57.4786 100.943 58.1214 101.21C58.7643 101.476 59.2984 101.952 59.6373 102.559C59.8723 102.991 60.6541 102.816 60.6028 102.303C60.4019 100.366 60.6916 98.4099 61.4451 96.6145C65.684 97.5203 68.4987 96.8848 71.1166 95.3419C71.4336 96.2722 73.5768 101.413 73.867 105.066ZM72.2238 90.7232C73.0939 89.4729 73.5794 87.9955 73.6205 86.4728C73.6404 86.0003 73.5592 85.5279 73.5791 85.0555C73.5806 85.0014 73.5977 84.9489 73.6284 84.9044C73.6591 84.8599 73.7021 84.8252 73.7521 84.8046C73.8021 84.784 73.857 84.7784 73.9102 84.7884C73.9634 84.7984 74.0125 84.8236 74.0516 84.861C74.8333 85.5983 74.5876 87.0991 74.452 88.0639C74.303 89.2271 73.8615 90.3336 73.1687 91.2798C72.7522 91.8258 71.8035 91.2783 72.2238 90.7239V90.7232Z" fill="#191919"/>
<path d="M17.48 61.1038C17.8134 61.1551 18.1527 61.1551 18.4861 61.1038C18.851 61.0601 19.1999 60.9288 19.503 60.7209C19.7764 60.5187 19.9894 60.2456 20.1189 59.9311C20.2483 59.6166 20.2894 59.2727 20.2376 58.9365C20.1858 58.6004 20.0431 58.2848 19.825 58.0238C19.6068 57.7629 19.3215 57.5665 18.9999 57.456C18.5546 57.3258 18.0967 57.2434 17.6339 57.2102C17.664 58.51 17.6126 59.8104 17.48 61.1038Z" fill="#38A1FF"/>
<path d="M31.2074 68.8351C30.4539 68.5004 29.7892 67.9941 29.2664 67.3565C29.0367 67.1268 28.4241 66.4882 28.2296 66.2271C29.7721 64.0041 30.5758 61.352 30.5267 58.6467C30.6546 53.1727 26.6668 46.5938 20.4133 45.3403C17.6091 44.8579 14.7242 45.2567 12.156 46.482C9.58782 47.7073 7.4627 49.6986 6.07332 52.1819C3.86275 56.1382 3.30302 61.7393 5.63228 66.1344C6.94725 68.5463 8.88249 70.5632 11.238 71.9767C14.2717 73.5219 18.6469 73.5648 21.238 72.829C22.9509 72.342 24.0282 71.4185 25.5091 69.9959C25.5162 70.0054 25.5255 70.0131 25.5361 70.0184C25.5467 70.0237 25.5585 70.0265 25.5703 70.0265C26.5393 70.391 27.5849 70.5041 28.6094 70.355C29.3184 70.2562 30.859 69.819 31.2894 69.2876C31.3301 69.2605 31.362 69.2221 31.3812 69.1771C31.4004 69.1321 31.406 69.0825 31.3973 69.0344C31.3885 68.9862 31.3659 68.9417 31.3322 68.9063C31.2984 68.8709 31.2551 68.8461 31.2074 68.8351ZM13.29 57.028C13.3127 56.8619 13.3936 56.7092 13.5182 56.5971C13.6429 56.485 13.8033 56.4208 13.9708 56.4158C14.1384 56.4108 14.3023 56.4655 14.4334 56.57C14.5645 56.6745 14.6542 56.8222 14.6867 56.9866C14.9003 58.2355 13.081 57.9346 13.2908 57.028H13.29ZM13.6729 60.7546C13.7471 60.6353 13.8557 60.5412 13.9845 60.485C14.1133 60.4288 14.2561 60.413 14.3941 60.4397C14.5321 60.4664 14.6587 60.5344 14.7571 60.6347C14.8556 60.735 14.9213 60.8628 14.9455 61.0012C15.1775 62.3465 12.9723 61.8703 13.6714 60.7546H13.6729ZM18.2411 62.2432C17.5948 62.2768 16.4799 62.2738 16.3934 61.4422C16.3645 60.6032 16.4264 59.7634 16.578 58.9376C16.6844 58.0854 16.7992 57.224 16.9608 56.3603C16.9698 56.3235 16.9875 56.2893 17.0123 56.2607C17.0372 56.2321 17.0685 56.2098 17.1037 56.1957C17.1389 56.1816 17.177 56.1761 17.2147 56.1797C17.2524 56.1833 17.2888 56.1959 17.3207 56.2163C17.3728 56.1543 17.6775 55.9139 18.7166 56.1344C22.3498 56.9078 22.3429 62.028 18.2395 62.2432H18.2411Z" fill="#38A1FF"/>
</svg>
