<svg width="154" height="154" viewBox="0 0 154 154" fill="none" xmlns="http://www.w3.org/2000/svg">
<path d="M148.969 27.703C148.494 32.2972 133.218 104.051 123.279 134.847C121.687 139.786 119.505 143.775 114.413 142.726C114.321 142.726 113.907 142.481 114.03 142.282C114.42 141.586 117.613 142.703 119.972 139.763C125.27 133.155 141.894 57.1365 143.708 49.0125C149.604 22.3431 149.581 23.1012 145.646 20.0996C145.041 19.6402 145.133 19.2114 145.546 19.2497C146.321 19.5025 147.026 19.9325 147.606 20.5054C149.995 22.8791 149.26 24.9082 148.969 27.703Z" fill="#191919"/>
<path d="M97.7058 16.0108C97.6188 15.9724 97.5457 15.9082 97.4964 15.8268C97.4471 15.7455 97.424 15.6509 97.4302 15.556C97.4361 15.4611 97.4708 15.3703 97.5296 15.2956C97.5884 15.2209 97.6686 15.1659 97.7594 15.1379C98.6936 14.8316 108.609 16.2635 109.666 16.4166C110.723 16.5698 110.952 17.0215 110.715 17.3814C110.225 18.1471 108.579 17.7566 107.652 17.6494C107.691 17.5958 98.7702 16.6387 97.7058 16.0108Z" fill="#38A1FF"/>
<path d="M114.199 18.6218C113.433 17.0904 115.998 15.8194 116.626 17.5116C117.254 19.2038 114.85 19.8929 114.199 18.6218Z" fill="#38A1FF"/>
<path fill-rule="evenodd" clip-rule="evenodd" d="M67.3444 131.361C54.1246 127.37 53.8329 127.282 55.048 117.711C56.7065 104.626 61.4225 81.5195 66.1713 60.2989C66.4524 60.3272 66.728 60.3487 66.9998 60.3617C59.9791 91.7439 55.254 118.163 55.5993 123.446V123.439C55.6032 124.196 55.8208 124.937 56.2272 125.577C56.6335 126.216 57.2121 126.728 57.8964 127.053C61.5258 129.051 87.2457 136.241 91.7633 137.305C98.0306 138.804 100.89 139.259 103.492 139.675C104.76 139.877 105.966 140.07 107.476 140.368C109.727 140.828 112.766 140.95 114.52 139.472C120.753 134.212 140.623 36.8685 141.917 29.7092L141.949 29.5331C142.722 25.2666 143.197 22.6494 142.211 20.8202C140.644 17.9166 135.394 16.9993 121.807 14.628L121.702 14.6096C112.208 12.948 91.6791 10.7811 83.9685 10.7351C78.9057 10.7351 78.5979 12.0031 76.6568 20.0093C76.3417 21.3172 76.0201 22.6235 75.6921 23.9282C74.558 28.3895 73.449 32.8572 72.3651 37.331L72.2763 37.2513C72.0718 37.0676 71.8605 36.8838 71.6438 36.7023C74.3559 25.4381 76.604 16.8018 77.6285 13.7826C79.055 9.65397 81.8085 9.79486 87.2817 10.0751C87.686 10.0958 88.1056 10.1172 88.5397 10.1379C109.313 11.095 134.926 15.2375 140.531 18.1395C144.206 20.0384 144.176 22.4044 142.828 29.5867C140.96 39.5791 135.094 68.2851 131.894 81.838L131.463 83.6619C120.479 130.18 118.241 139.66 113.342 141.328C112.088 141.756 110.66 141.671 108.867 141.565L108.823 141.563C109.336 142.076 93.8996 139.779 76.3804 134.158C72.8475 133.023 69.862 132.122 67.3452 131.361H67.3444ZM68.9884 60.305C63.2226 86.1964 57.7157 114.199 57.499 121.287C57.4301 124.495 58.0963 125.376 64.3903 127.412C74.9417 130.828 104.919 139.204 108.326 138.385C109.527 138.285 110.685 137.896 111.703 137.252C113.87 135.575 114.896 132.596 116.029 129.12C119.437 118.722 142.775 23.9282 139.345 20.8654C139.325 20.8374 139.295 20.8178 139.262 20.8105C139.228 20.8033 139.193 20.8088 139.163 20.8261C139.133 20.8433 139.111 20.871 139.101 20.9038C139.091 20.9366 139.093 20.972 139.107 21.0032C140.325 25.3217 120.003 115.674 114.291 131.18C112.293 136.54 110.761 138.071 105.401 137.305C100.462 136.586 80.3322 131.394 69.4133 128.163C59.5205 125.23 58.4868 124.365 58.4332 122.282C58.2479 114.621 64.3398 84.9774 69.9049 60.2009C69.6139 60.2369 69.3092 60.2713 68.9884 60.305ZM74.6683 39.6082C74.4337 39.3532 74.195 39.1021 73.9524 38.8547C76.555 28.0859 78.8881 19.2918 80.4164 14.9235C80.9677 13.3309 81.5956 12.5422 84.6431 12.7566C85.1255 12.7566 90.2404 12.8255 92.3767 13.2696C92.7764 13.3538 92.8146 14.0552 92.8629 14.9457C92.9417 16.4082 93.0489 18.3799 94.8346 18.9503C98.3032 20.0606 112.384 21.8753 113.418 21.9595L114.688 22.0698C120.545 22.5805 121.224 22.6402 123.985 17.7796C124.316 17.2007 124.93 17.2788 125.327 17.3301C125.398 17.3393 125.462 17.347 125.516 17.3508C128.005 17.5269 133.311 18.262 135.623 19.2038C136.052 19.3799 136.182 19.7781 135.861 19.7857C135.667 19.7857 135.349 19.7114 134.793 19.5813C133.459 19.2696 130.753 18.6372 125.095 17.9404C124.779 17.8998 124.528 18.4044 124.175 19.1173C123.39 20.6992 122.097 23.3056 118.449 23.2314C111.248 22.8802 104.083 22.005 97.0092 20.6127C93.1806 19.7781 92.078 19.3263 92.0627 15.0613C92.0627 14.7451 92.0949 14.5238 92.1179 14.3661C92.1738 13.9832 92.1738 13.9825 91.5114 13.9281C87.3843 13.5376 84.7809 13.5529 84.9187 13.5529C84.5259 13.544 84.1332 13.5269 83.7411 13.5016C82.9532 13.4549 82.4371 13.425 82.0405 13.6272C81.2863 14.0131 80.9631 15.2428 80.0267 18.8087C79.4639 20.9735 78.8766 23.1319 78.2648 25.2834C77.5841 27.6663 76.287 32.8302 74.6683 39.6074V39.6082Z" fill="#191919"/>
<path d="M101.61 75.1305C100.753 75.1305 100.5 75.23 100.171 75.9881C99.5044 77.5195 98.9608 83.3694 98.8995 85.3832C98.8229 87.9024 100.806 87.42 118.846 89.6864C119.995 89.8319 120.094 89.2959 120.446 88.0478C120.947 86.0097 121.27 83.932 121.411 81.838C122.016 76.9146 122.422 77.3127 118.203 76.7385C118.126 76.7385 102.674 75.1075 101.61 75.1305ZM101.794 81.4935C101.814 80.5198 102.219 79.5939 102.921 78.9191C103.623 78.2443 104.565 77.8758 105.538 77.8947C106.062 77.9092 106.577 78.0354 107.048 78.2647C107.519 78.4939 107.936 78.8211 108.271 79.2243C108.606 79.6274 108.851 80.0974 108.99 80.6028C109.129 81.1082 109.158 81.6373 109.076 82.155C108.968 82.8472 108.665 83.4942 108.203 84.0203C106.112 86.5088 101.625 84.9774 101.832 81.4935H101.794Z" fill="#191919"/>
<path d="M105.615 84.4566C106.328 84.4222 107.003 84.1271 107.513 83.6274C108.023 83.1277 108.331 82.4582 108.379 81.7461C108.448 78.331 103.785 77.7797 102.805 80.5286C102.632 80.9754 102.572 81.4582 102.632 81.9336C102.693 82.4089 102.87 82.8617 103.149 83.2514C103.428 83.6411 103.799 83.9555 104.229 84.1664C104.66 84.3764 105.136 84.4762 105.615 84.4566ZM104.62 80.8961C103.77 81.5699 104.742 82.0217 104.221 82.305C103.907 82.4735 103.31 81.6618 103.754 80.8196C103.992 80.3601 104.382 80.0539 104.689 80.3372C104.995 80.6205 104.826 80.7353 104.62 80.8961ZM105.156 79.8471C105.158 79.7967 105.171 79.7474 105.193 79.702C105.215 79.6565 105.246 79.6159 105.283 79.5824C105.321 79.549 105.365 79.5233 105.413 79.507C105.461 79.4906 105.511 79.4839 105.561 79.4872C105.663 79.4935 105.758 79.5398 105.825 79.6158C105.893 79.6919 105.927 79.7916 105.921 79.8931C105.914 80.4367 105.064 80.2453 105.156 79.8471Z" fill="#191919"/>
<path fill-rule="evenodd" clip-rule="evenodd" d="M104.045 89.449C96.9318 88.5072 96.6714 88.3847 97.1538 83.5914C97.4416 80.5542 97.925 77.5388 98.601 74.5638C98.8973 73.4536 100.068 73.5608 101.226 73.6649C101.354 73.6772 101.483 73.6879 101.61 73.6986C108.873 74.2713 113.32 74.8793 116.052 75.253C119.708 75.753 120.293 75.8334 120.446 74.8471L120.745 72.9406C121.812 66.148 121.975 65.1113 120.446 64.6327C118.479 63.9444 116.439 63.482 114.367 63.2544C114.212 63.2053 114.046 63.2122 113.896 63.2738C113.746 63.3354 113.623 63.4479 113.547 63.5914C113.328 63.9995 113.132 64.3226 112.975 64.5814C112.407 65.5156 112.348 65.6128 113.547 65.8885L113.984 65.9788C114.842 66.1549 116.146 66.4214 118.042 66.9758C118.808 67.2131 118.67 67.9099 117.514 67.7415C113.753 67.207 95.3123 63.8149 87.1882 62.3203C84.8398 61.8892 83.3536 61.6159 83.3329 61.6159C82.4907 61.4397 82.5672 60.743 83.4325 60.7966C83.9501 60.7966 84.8023 60.8808 86.0236 61.0033H86.0244L87.1078 61.1105C87.4463 61.1434 87.411 61.05 86.9371 59.7988L86.6867 59.135C86.4953 58.622 86.3038 58.4688 85.4845 58.3693C78.777 57.4504 78.0879 58.6449 77.3681 61.4321C76.9738 62.9129 76.6078 65.073 76.0741 68.2254C75.9225 69.1159 75.7586 70.086 75.5764 71.1412C74.8229 75.5049 74.1185 79.0363 73.5473 81.9038C71.6154 91.5907 71.195 93.6964 75.4845 94.6711C79.1216 95.4981 106.557 100.452 111.671 101.141C116.36 101.773 116.377 101.703 117.587 97.041C117.696 96.6168 117.816 96.1543 117.95 95.6512C118.281 94.4497 118.494 93.2187 118.586 91.9759C118.694 91.093 118.446 91.0677 114.571 90.6749C112.397 90.4536 109.081 90.1175 104.045 89.449ZM118.892 69.9314C118.448 69.5408 116.641 69.2499 116.733 69.8395C116.794 70.23 117.851 70.475 118.264 70.475C118.93 70.475 119.083 70.1075 118.892 69.9314ZM113.93 68.8364C112.736 68.7445 112.169 69.7935 114.757 69.7782C115.293 69.7706 115.737 69.0125 113.93 68.8364ZM110.952 68.4306C109.521 68.0094 109.237 68.0324 109.069 68.3464C108.9 68.6603 110.347 69.2346 110.875 69.1503C111.403 69.0661 111.128 68.4842 110.952 68.4306ZM107.192 67.6572C106.61 67.2437 104.826 66.9987 104.987 67.7338C105.148 68.4689 108.295 68.4153 107.192 67.6572ZM101.067 66.8379C101.067 67.2093 101.668 67.3257 102.335 67.4543L102.353 67.4581L102.395 67.4658C102.678 67.5194 102.743 67.5309 102.801 67.514C102.82 67.5076 102.839 67.4997 102.857 67.4903C102.88 67.4787 102.903 67.4679 102.927 67.4581C104.765 66.9145 101.158 65.8731 101.067 66.8379ZM79.6958 67.7568C80.339 67.3739 80.9746 65.3295 79.8796 65.3142C78.7847 65.2989 78.754 68.3234 79.6958 67.7568ZM76.4033 88.8059C76.5182 88.201 79.4661 70.498 79.2594 70.0462C78.9991 69.3954 78.4937 69.6787 78.4937 69.9314C77.8965 71.3096 75.1093 88.3081 75.2395 88.8671C75.2682 89.005 75.3453 89.1281 75.4568 89.214C75.5684 89.3 75.707 89.3432 75.8477 89.3358C75.9883 89.3284 76.1217 89.2709 76.2236 89.1737C76.3255 89.0765 76.3893 88.946 76.4033 88.8059ZM77.192 91.9988C75.0634 91.3097 74.4049 92.7645 76.702 92.7645C77.6438 92.7722 77.751 92.1826 77.192 91.9988ZM79.666 92.4108C79.4049 92.3556 79.2946 92.3327 79.1522 92.4123C79.1059 92.4425 79.0661 92.4814 79.0349 92.527C79.0037 92.5726 78.9817 92.6238 78.9704 92.6779C78.959 92.7319 78.9584 92.7877 78.9685 92.842C78.9787 92.8962 78.9995 92.948 79.0297 92.9942C79.29 93.3618 80.4845 93.446 80.8061 93.446C80.9186 93.4523 81.0291 93.4141 81.1136 93.3396C81.1982 93.265 81.25 93.1602 81.2579 93.0478C81.2885 92.688 80.6989 92.5884 80.1246 92.4965C79.9301 92.4659 79.7831 92.4345 79.666 92.4108ZM81.97 62.8869C79.7188 62.1901 79.2517 63.6526 81.4034 63.6526C82.46 63.6679 82.4907 63.0477 81.97 62.8869ZM83.9761 93.1627C83.9314 93.154 83.8867 93.145 83.8421 93.1359C83.4616 93.057 83.032 92.9682 82.9501 93.3924C82.8666 93.8258 83.1974 93.8893 83.483 93.9437H83.4838L83.5626 93.959L83.6369 93.9751C84.1982 94.1014 85.1025 94.3043 85.2778 93.8135C85.434 93.3778 84.7564 93.2791 84.2342 93.2025C84.1479 93.1908 84.0619 93.1775 83.9761 93.1627ZM84.5427 63.3234C84.6499 63.3463 84.7686 63.3716 84.9026 63.3923L84.9937 63.4061C85.4907 63.4842 85.97 63.5592 86.0205 63.9206C86.1124 64.7093 83.0113 64.1963 83.8153 63.3923C83.9998 63.2077 84.215 63.2537 84.5427 63.3234ZM89.0404 94.1129L89.0389 94.1122C88.2372 93.8664 86.9164 93.4613 86.9164 94.2653C86.9164 94.6635 88.3483 94.9315 88.8766 94.9315C89.8107 94.9315 89.7801 94.3419 89.2135 94.1658L89.0404 94.1129ZM88.2947 63.9819C89.7342 64.2805 89.8031 64.3264 89.9333 64.5179C89.9853 64.5914 90.0343 64.6151 90.0619 64.6289C90.0749 64.6358 90.0833 64.6396 90.0849 64.6457C90.0879 64.6557 90.0703 64.6718 90.0213 64.7154C89.9786 64.7535 89.9364 64.7923 89.895 64.8318C89.5887 65.1228 89.5198 65.1228 88.1339 64.8318C87.4294 64.6863 87.6208 63.8364 88.2947 63.9819ZM92.284 94.6635C91.1967 94.472 91.2349 95.2913 91.8705 95.4292C92.5075 95.6114 93.1576 95.7423 93.8154 95.8197C94.0298 95.8197 94.382 95.59 94.3513 95.3756C94.3054 95.054 93.4095 94.8625 92.284 94.6635ZM93.7771 65.0607L93.9608 65.1143C94.7801 65.3517 94.1752 65.9183 93.8613 65.9183C93.9072 65.9183 93.2181 65.8035 93.1415 65.8035L93.1224 65.8012C92.0496 65.6274 91.6637 65.5646 91.6637 65.23C91.7066 64.4451 92.9126 64.8035 93.7771 65.0607ZM98.9073 66.1174C98.2111 65.8529 97.4864 65.6705 96.748 65.5738C96.1048 65.4666 95.944 66.2246 96.5566 66.3931C97.2151 66.5952 97.8927 66.7292 98.578 66.7912C99.3077 66.7912 99.0673 66.3954 98.9532 66.207C98.9272 66.1641 98.9073 66.1319 98.9073 66.1182V66.1174ZM96.434 96.103C96.1354 95.835 96.5259 95.4215 97.3299 95.4828C98.2641 95.5517 99.1446 96.0723 98.5244 96.3939C98.175 96.494 97.8085 96.5198 97.4484 96.4696C97.0884 96.4195 96.7429 96.2946 96.434 96.103ZM100.722 96.2944C100.102 96.2944 100.14 96.9912 100.668 97.1367C103.027 97.7875 103.563 96.3097 100.722 96.2944ZM104.351 97.3434C104.459 96.9835 104.773 97.0524 106.074 97.3434C106.633 97.4659 106.641 98.1321 105.936 98.1091C105.377 98.1091 104.244 97.7033 104.351 97.3434ZM110.079 97.9943L109.885 97.9537C109.384 97.8465 108.688 97.6979 108.371 97.9407C108.233 98.0402 108.134 98.2852 108.264 98.4154C108.804 98.6543 109.39 98.7722 109.979 98.76C110.661 98.6834 110.599 98.0861 110.079 97.9943ZM112.276 98.4996C111.036 98.9284 114.076 99.9391 114.229 99.1045C114.459 98.7599 112.797 98.3235 112.276 98.4996Z" fill="#191919"/>
<path d="M80.8899 102.206C79.4734 106.34 73.4243 119.579 76.0124 112.719C80.4458 100.988 80.2927 101.379 80.8899 102.206Z" fill="#191919"/>
<path d="M91.9547 105.59C92.4218 104.763 92.8123 105.406 92.8659 106.356C92.9731 108.5 92.7357 110.184 92.0236 116.057C91.9241 116.823 91.4723 115.621 91.5259 112.734C91.6637 112.726 91.9164 105.651 91.9547 105.59Z" fill="#191919"/>
<path d="M107.284 106.593C115.354 118.209 111.61 115.299 106.396 107.053C105.883 106.241 106.779 105.858 107.284 106.593Z" fill="#191919"/>
<path d="M64.3127 103.829C64.9405 103.063 70.4383 96.9376 71.0432 97.7799C71.071 97.8441 71.0821 97.9143 71.0754 97.9839C71.0687 98.0535 71.0444 98.1203 71.0049 98.1781C70.109 99.1888 62.1228 106.593 64.3127 103.829Z" fill="#191919"/>
<path d="M99.4583 35.5055C98.593 35.4519 98.6926 34.1426 98.2332 27.3968C97.7738 20.6509 100.347 35.5515 99.4583 35.5055Z" fill="#191919"/>
<path d="M111.411 37.5883C113.205 34.7917 115.174 32.1115 117.307 29.5637C117.468 30.2529 111.128 40.4367 111.411 37.5883Z" fill="#191919"/>
<path d="M120.53 48.0093C120.513 47.9385 120.512 47.8647 120.527 47.7933C120.541 47.7219 120.571 47.6545 120.614 47.5959C121.901 46.5928 130.66 44.334 128.647 45.2988C128.348 45.4366 120.806 49.0354 120.53 48.0093Z" fill="#191919"/>
<path d="M88.0493 40.1763C86.4719 38.1318 80.4995 25.628 88.6925 39.6096C89.1366 40.4213 88.3249 40.5668 88.0493 40.1763Z" fill="#191919"/>
<path d="M41.7018 65.766C41.8243 79.5486 26.8702 88.6068 14.6573 82.083C10.4477 79.8619 7.22556 76.1411 5.62886 71.6573C4.03215 67.1734 4.17727 62.2535 6.03549 57.8716C7.26653 54.9696 9.20065 52.4197 11.6634 50.452C22.7431 41.4627 41.541 48.3999 41.7018 65.766ZM23.08 50.0768C19.0329 50.0865 15.1521 51.6875 12.2754 54.5341C9.3987 57.3807 7.75697 61.2445 7.70471 65.2913C7.68867 67.3556 8.08792 69.4022 8.87871 71.3092C9.6695 73.2162 10.8357 74.9447 12.3079 76.3919C13.7802 77.8391 15.5284 78.9756 17.4486 79.7336C19.3689 80.4916 21.422 80.8557 23.4858 80.8043C27.4443 80.7186 31.2129 79.0907 33.9889 76.2675C36.7649 73.4443 38.329 69.6488 38.348 65.6894C38.396 63.655 38.0365 61.6316 37.2905 59.7383C36.5446 57.845 35.4273 56.1201 34.0045 54.6652C32.5817 53.2103 30.8822 52.0548 29.006 51.2668C27.1298 50.4788 25.1149 50.0742 23.08 50.0768Z" fill="#38A1FF"/>
<path d="M37.391 65.4367C37.3719 69.1578 35.9165 72.7277 33.3284 75.4013C30.7404 78.075 27.2197 79.6458 23.5012 79.7859C21.5836 79.8677 19.6692 79.5626 17.8721 78.8886C16.075 78.2147 14.432 77.1858 13.041 75.8633C11.6503 74.5405 10.5402 72.9512 9.77722 71.19C9.0142 69.4289 8.61381 67.5321 8.59994 65.6128C8.57445 63.7223 8.92269 61.8453 9.62465 60.0897C10.3266 58.3341 11.3685 56.7344 12.6904 55.3826C14.0123 54.0308 15.5883 52.9535 17.3278 52.2124C19.0672 51.4714 20.936 51.0813 22.8266 51.0645C26.6623 51.0441 30.3494 52.5457 33.0796 55.2399C35.8097 57.9342 37.3599 61.6012 37.3903 65.4367H37.391ZM27.1613 63.1396C23.7845 63.2085 25.9897 63.2774 28.5625 61.1105C32.6207 57.7032 28.4936 55.6358 22.9423 56.9221C21.4109 57.2667 22.0541 57.3509 21.273 55.5898C21.1672 55.3951 20.9906 55.2483 20.7797 55.18C20.5689 55.1116 20.3398 55.1267 20.1398 55.2223C19.5655 55.4903 19.7034 55.8502 20.0785 57.1748C20.2547 57.795 20.2547 57.6036 19.0602 58.0018C18.5778 58.1702 18.7922 58.1855 18.0877 56.3861C17.881 55.8425 16.6788 56.0875 16.832 56.9987C17.0693 58.4382 17.4905 58.5301 16.9775 58.7981C15.1245 59.7246 14.6804 59.9849 14.2975 60.6052C14.2256 60.7113 14.1928 60.8391 14.205 60.9667C14.2171 61.0943 14.2733 61.2137 14.364 61.3044C14.4546 61.395 14.574 61.4513 14.7016 61.4634C14.8293 61.4755 14.9571 61.4428 15.0632 61.3709C17.8504 60.0615 17.6206 60.0462 17.7508 60.5669C18.6926 64.2039 18.8228 64.2193 18.3174 64.3188C16.7171 64.6327 17.2991 66.2713 18.4323 65.9651C19.198 65.766 19.0219 65.3602 19.4966 67.9942C20.1321 71.5853 20.1781 71.4092 19.7799 71.547C18.9749 71.766 18.2153 72.1264 17.5364 72.6113C17.4477 72.6919 17.3856 72.7976 17.3585 72.9143C17.3313 73.031 17.3404 73.1533 17.3845 73.2647C17.4285 73.3762 17.5055 73.4715 17.6052 73.5381C17.7048 73.6047 17.8224 73.6393 17.9422 73.6374C18.652 73.6047 19.3571 73.5047 20.0479 73.3387C20.538 73.2239 20.3389 73.5149 20.6298 74.8701C20.9208 76.2254 21.6712 75.8656 21.8626 75.544C22.0541 75.2224 22.1153 74.9927 21.9928 73.1397C21.9928 72.642 22.0694 72.8028 23.1643 72.4505C23.6697 72.2897 23.4783 72.3587 23.662 73.3464C23.8458 74.3342 23.8764 74.8778 24.4277 74.8778C25.7754 74.8778 24.6957 71.9222 25.293 71.6389C29.4048 69.6864 30.9285 69.1121 32.5441 67.3127C34.1598 65.5133 32.9193 63.0477 27.1613 63.1626V63.1396Z" fill="#38A1FF"/>
<path d="M21.8777 70.6435C21.6327 70.7201 21.6939 70.6435 21.4413 69.3418C20.599 65.0233 20.4765 65.3525 21.2345 65.2224C32.6894 63.2851 36.4337 65.7507 21.8777 70.6435Z" fill="#38A1FF"/>
<path d="M26.135 60.8349C24.3433 61.8609 22.4892 62.7739 20.5836 63.5684C20.1395 63.7675 20.3233 63.8364 19.2743 59.7399C19.2283 59.5485 19.2743 59.4566 19.4657 59.4107C20.1089 59.2269 23.2942 58.3846 24.9558 58.0554C25.4152 57.9865 31.5255 57.4505 26.135 60.8349Z" fill="#38A1FF"/>
<path d="M61.7175 42.5807C62.8507 41.1565 65.0712 40.6588 66.4342 41.5929C67.6057 42.3586 66.9472 43.7828 66.5567 45.6128C66.4725 45.9804 66.8324 46.1871 61.8247 43.132C61.4725 42.9176 61.4571 42.9023 61.7175 42.5807Z" fill="#38A1FF"/>
<path d="M71.5948 38.0017C62.8812 30.161 45.0786 25.4136 44.4278 34.8394C43.8306 43.4842 60.9669 55.5899 72.1768 54.7935C79.405 54.2805 81.8552 47.2284 71.5948 38.0017ZM52.5825 36.2559C52.9271 35.697 53.5473 36.1105 54.7801 37.0216C55.339 37.4351 55.5458 36.4244 57.6055 36.2559C62.1997 35.942 60.5841 41.2943 61.3574 40.674C64.6423 38.063 69.7801 39.8547 68.6392 44.2116C68.5091 44.7399 68.4938 44.7322 68.9838 44.9773C69.5867 45.2637 70.1338 45.6552 70.5994 46.1335C71.0282 46.6465 70.4386 46.7537 70.0405 46.6924C69.399 46.4767 68.7787 46.2024 68.1875 45.8731C67.8506 46.6388 67.8123 46.6388 68.0956 46.8532C69.3666 47.8104 69.7495 47.9099 69.5351 48.331C69.091 49.1886 67.7281 47.4735 67.0006 47.6649C66.9374 47.6869 66.8702 47.6953 66.8034 47.6896C66.7367 47.6838 66.6719 47.664 66.6134 47.6315C66.5548 47.5989 66.5038 47.5544 66.4636 47.5008C66.4235 47.4472 66.3951 47.3857 66.3804 47.3203C66.2885 46.8456 66.3192 46.9604 62.4983 44.7246C60.9669 43.8211 61.0511 43.7598 60.8291 44.0967C60.2089 45.0538 59.3743 44.4872 59.2977 43.9129C59.2288 43.0783 59.4891 42.9252 59.0144 42.6266C54.6269 39.9083 54.5427 39.916 54.7265 39.5102C54.7621 39.4532 54.809 39.4041 54.8642 39.3657C54.9194 39.3273 54.9818 39.3005 55.0476 39.2869C55.1134 39.2733 55.1813 39.2732 55.2472 39.2866C55.3131 39.2999 55.3756 39.3265 55.4309 39.3647C60.2548 41.9145 59.4279 42.3356 59.6269 40.2299C59.6269 37.9864 58.6928 37.3815 57.2686 37.6802C53.7157 38.4459 53.5779 41.21 52.7816 40.9803C51.9853 40.7506 52.4753 39.8011 52.8964 39.0814C53.2257 38.5148 50.6606 37.9635 51.2349 37.2667C51.4876 36.968 51.8245 37.1595 53.0419 37.7031C53.8076 38.0477 53.5549 38.2008 54.1139 37.7031C53.3023 37.2437 52.1997 36.8762 52.5825 36.2559ZM71.2043 51.792C60.9133 51.233 48.5702 42.6036 46.9087 36.478C46.2961 34.2498 47.3757 32.9711 48.2946 32.4887C50.2854 31.455 48.1644 33.1702 48.0802 33.2544C44.2517 36.6771 55.9286 49.5791 71.9853 51.2177C80.8751 51.0952 73.4249 39.4872 61.3574 34.4106C58.6109 33.183 55.6685 32.452 52.6667 32.2513C50.8444 32.0982 51.0128 31.6235 52.7203 31.5469C56.3421 31.3938 63.9378 34.2039 69.8797 38.7674C76.3422 43.7751 80.431 52.2974 71.2043 51.792Z" fill="#38A1FF"/>
<path d="M68.7082 59.3188C56.1507 58.8977 43.3788 48.3157 41.9087 40.8118C41.5182 38.7751 42.1461 37.2896 43.1644 35.4979C43.8382 34.3187 43.0189 38.5607 46.9929 43.2544C53.1185 50.4367 64.1752 56.5929 72.7511 55.5056C75.3927 55.1687 75.163 54.7399 76.0283 54.7399C76.0483 54.8436 76.0483 54.9502 76.0283 55.0539C73.9303 58.6144 72.7358 58.8441 68.7082 59.3188Z" fill="#38A1FF"/>
<path d="M90.1629 54.985C90.1094 52.8616 90.67 50.7678 91.7773 48.9551C92.8847 47.1424 94.4917 45.6879 96.4054 44.7662C98.3192 43.8445 100.458 43.4948 102.566 43.7591C104.674 44.0233 106.66 44.8904 108.287 46.256C109.677 47.4072 110.763 48.8828 111.447 50.5527C112.132 52.2226 112.395 54.0354 112.214 55.8311C112.032 57.6268 111.411 59.3502 110.406 60.8492C109.401 62.3482 108.042 63.5766 106.449 64.4261C106.174 64.5639 95.0481 62.374 93.4325 62.129C91.924 61.9223 90.0098 57.5578 90.1629 54.985ZM104.658 52.4506C102.521 52.4888 103.18 52.5501 104.956 51.4092C108.195 49.3265 107.253 46.815 102.299 47.5194C99.9026 47.8717 100.714 48.2162 100.056 46.6619C99.849 46.1795 98.5627 45.9957 98.9838 47.4276C99.2288 48.2698 99.2288 48.2545 98.3789 48.4995C97.6744 48.7063 97.9578 46.5776 96.9317 47.1289C96.4264 47.4046 96.6254 47.8946 96.8628 48.6603C97.0236 49.158 96.8628 48.9972 95.0634 50.0769C94.7265 50.2836 94.4432 50.766 94.7648 51.0034C95.0864 51.2407 95.3927 51.1029 96.8858 50.3372C97.3069 50.1228 97.2533 50.1917 97.8199 52.4735C98.0573 53.446 97.9654 53.1933 97.3605 53.4919C97.2328 53.5485 97.129 53.6481 97.0672 53.7733C97.0053 53.8986 96.9894 54.0416 97.0223 54.1774C97.0551 54.3132 97.1345 54.4331 97.2467 54.5164C97.3589 54.5996 97.4967 54.6408 97.6362 54.6328C98.1032 54.6328 98.3023 54.3648 98.4019 54.7936C99.2058 59.2117 99.2901 58.7599 98.7311 58.982C97.5137 59.4644 96.8628 59.6558 97.0772 60.2454C97.2074 60.6206 97.5673 60.567 98.9991 60.3143C99.9026 60.1535 99.0604 62.1673 100.14 62.1596C101.22 62.152 100.14 59.8625 100.906 59.7936C101.985 59.74 101.526 58.8977 102.024 61.0953C102.169 61.7308 103.364 62.0218 102.973 59.3495C102.912 58.9284 103.034 59.1351 105.469 57.9483C111.174 55.1611 109.933 52.351 104.658 52.4506Z" fill="#38A1FF"/>
<path d="M86.9854 54.8395C87.2304 39.1809 106.495 35.4213 113.379 46.8456C119.114 56.3632 111.848 65.4827 110.799 65.3143C103.907 64.227 110.485 65.7584 112.667 57.5194C113.043 55.9891 113.108 54.3989 112.859 52.8428C112.61 51.2868 112.052 49.7964 111.217 48.4597C110.383 47.123 109.289 45.967 108.001 45.0598C106.713 44.1527 105.256 43.5128 103.716 43.1779C102.071 42.8268 100.371 42.8313 98.728 43.1912C97.0854 43.551 95.5386 44.2578 94.1914 45.2642C92.8442 46.2706 91.7277 47.5534 90.9167 49.0266C90.1057 50.4997 89.619 52.1292 89.4892 53.8058C89.0451 59.5026 92.6286 61.9299 91.5413 61.7461C88.6316 61.2561 88.6546 61.3326 88.4785 60.9804C86.4187 56.6465 87.284 54.5026 86.9854 54.8395Z" fill="#38A1FF"/>
<path d="M100.622 58.178C100.293 58.2852 100.377 58.2929 99.7417 54.985C99.5809 54.1734 99.3742 54.1275 100.416 53.9667C109.213 52.6267 111.174 54.6405 100.622 58.178Z" fill="#38A1FF"/>
<path d="M103.624 50.7277C102.935 51.0952 101.817 51.6312 99.6115 52.7262C99.1138 52.9712 99.3282 52.8028 98.5472 49.939C98.4783 49.7017 98.5472 49.6251 98.7616 49.5638C102.468 48.6374 101.579 48.7981 102.896 48.5991C105.331 48.2239 107.192 48.8517 103.624 50.7277Z" fill="#38A1FF"/>
</svg>
